<svg width="433" height="905" viewBox="0 0 433 905" fill="none" xmlns="http://www.w3.org/2000/svg">
<g clip-path="url(#clip0_1_8)" filter="url(#filter0_d_1_8)">
<rect width="425" height="897" transform="translate(4)" fill="#4686FF"/>
<path d="M302.93 429.5C330.813 433.536 394.097 449.333 421.43 450.5V582H6.43005L6.42997 463.121C46.8243 455.099 57.4789 442.088 118.43 432C156.921 425.629 186.09 413.24 221.93 412C253.597 410.904 285.105 426.92 302.93 429.5Z" fill="#3F7EF5"/>
<path d="M7.00522 471.5C39.3445 463.856 135.195 442.228 188.752 441.167C203.267 440.926 212.043 442.611 220.482 443.093C227.065 443.454 233.141 443.213 241.411 440.685C245.293 439.481 249.344 439 253.394 439C268.753 439 285.462 445.38 303.859 444.296C304.197 444.296 304.366 444.296 304.534 444.296C318.374 443.574 330.526 443.815 341.497 444.898C366.645 447.426 386.73 454.167 410.022 462.352C417.834 465.1 423.747 468.573 431.417 470.84C431.417 520.5 431.417 556.5 431.417 619.736L6.92996 600.954C6.92994 581 7.00524 491.5 7.00522 471.5Z" fill="#3575EF"/>
<path d="M67.4976 142.844C67.4976 142.338 67.8442 142 68.3642 142H90.8091C104.415 142 112.647 149.851 112.647 161.331C112.647 174.163 102.422 180.832 89.5958 180.832H80.0633V189.864C80.0633 194.085 76.5969 197.462 72.2639 197.462H68.3642C67.8442 197.462 67.4976 197.124 67.4976 196.618V142.844ZM89.9425 170.026C96.182 170.026 99.9084 166.396 99.9084 161.416C99.9084 155.929 96.0087 152.974 89.7692 152.974H80.0633V169.942H89.9425V170.026Z" fill="white"/>
<path d="M175.218 162.825H162.394C161.989 162.825 161.719 162.561 161.719 162.165V159.986C161.719 156.685 164.419 154.044 167.793 154.044H192.429C195.804 154.044 198.504 156.685 198.504 159.986V162.165C198.504 162.561 198.234 162.825 197.829 162.825H185.005V196.76C185.005 197.156 184.735 197.421 184.33 197.421H175.893C175.488 197.421 175.218 197.156 175.218 196.76V162.825Z" fill="white"/>
<path d="M155.228 188.917H131.538V179.885H146.762C146.831 179.885 146.899 179.885 146.967 179.885C148.264 179.688 149.493 179.094 150.449 178.237C151.678 177.183 152.429 175.666 152.634 174.018C152.702 173.82 152.565 173.557 152.429 173.359C152.292 173.161 152.019 173.095 151.814 173.095L147.718 172.964C147.172 172.041 146.08 171.447 144.987 171.447C144.851 171.447 144.782 171.447 144.646 171.447L144.578 171.381L143.622 169.404C143.485 169.074 143.144 168.942 142.803 168.942C142.461 168.942 142.188 169.14 142.052 169.47L141.505 170.788L140.277 168.942C140.072 168.679 139.662 168.547 139.321 168.613C138.979 168.744 138.706 169.008 138.706 169.404V171.315H131.538V162.548H154.955C155.364 162.548 155.637 162.284 155.637 161.889V160.636C155.637 157.01 152.565 154.044 148.81 154.044H122.39C122.048 154.044 121.707 154.308 121.707 154.703V196.761C121.707 197.157 122.048 197.421 122.39 197.421H149.766C153.111 197.421 155.911 194.784 155.911 191.488V189.576C155.911 189.246 155.569 188.917 155.228 188.917ZM145.465 172.172C145.807 172.172 146.148 172.436 146.148 172.832C146.148 173.161 145.875 173.491 145.465 173.491C145.124 173.491 144.782 173.227 144.782 172.832C144.851 172.502 145.124 172.172 145.465 172.172Z" fill="white"/>
<path d="M199.203 197.417L222.818 142H233.996L257.611 197.417H244.938L239.9 185.076H216.6L211.562 197.417H199.203ZM220.929 174.385H235.57L228.25 156.542L220.929 174.385Z" fill="#8FB6FF"/>
<path d="M264.856 209.993V155.284H276.821V161.337C280.18 156.778 284.562 154.498 289.967 154.498C295.215 154.498 299.728 156.463 303.506 160.394C307.285 164.324 309.174 169.669 309.174 176.429C309.174 183.137 307.285 188.456 303.506 192.386C299.78 196.264 295.267 198.203 289.967 198.203C284.719 198.203 280.337 196.107 276.821 191.914V209.993H264.856ZM279.576 184.84C281.57 186.988 284.011 188.063 286.897 188.063C289.783 188.063 292.223 186.988 294.218 184.84C296.212 182.639 297.209 179.783 297.209 176.272C297.209 172.866 296.212 170.088 294.218 167.94C292.223 165.739 289.783 164.638 286.897 164.638C284.011 164.638 281.57 165.739 279.576 167.94C277.635 170.088 276.664 172.918 276.664 176.429C276.664 179.835 277.635 182.639 279.576 184.84Z" fill="#8FB6FF"/>
<path d="M317.975 209.993V155.284H329.94V161.337C333.298 156.778 337.68 154.498 343.085 154.498C348.333 154.498 352.846 156.463 356.625 160.394C360.403 164.324 362.292 169.669 362.292 176.429C362.292 183.137 360.403 188.456 356.625 192.386C352.899 196.264 348.386 198.203 343.085 198.203C337.838 198.203 333.456 196.107 329.94 191.914V209.993H317.975ZM332.695 184.84C334.689 186.988 337.129 188.063 340.015 188.063C342.902 188.063 345.342 186.988 347.336 184.84C349.33 182.639 350.327 179.783 350.327 176.272C350.327 172.866 349.33 170.088 347.336 167.94C345.342 165.739 342.902 164.638 340.015 164.638C337.129 164.638 334.689 165.739 332.695 167.94C330.753 170.088 329.782 172.918 329.782 176.429C329.782 179.835 330.753 182.639 332.695 184.84Z" fill="#8FB6FF"/>
<path d="M54.839 102.833H50.3401C50.3401 102.758 50.3401 102.609 50.3401 102.534C50.3401 92.2954 41.7236 84 31.0483 84C20.373 84 11.7565 92.2954 11.7565 102.534C11.7565 102.609 11.7565 102.758 11.7565 102.833H11.5278C4.51256 102.833 -1.28261 108.064 -1.28261 114.416C-1.28261 120.769 4.4363 126 11.5278 126H54.6865C61.7017 126 67.4968 120.769 67.4968 114.416C67.5731 108.064 61.8542 102.833 54.839 102.833Z" fill="#3575EF"/>
<path d="M63.7639 242.94H56.3277C56.3277 242.817 56.3277 242.571 56.3277 242.448C56.3277 225.628 42.0854 212 24.4401 212C6.79477 212 -7.44752 225.628 -7.44752 242.448C-7.44752 242.571 -7.44752 242.817 -7.44752 242.94H-7.82562C-19.4211 242.94 -29 251.534 -29 261.97C-29 272.406 -19.5471 281 -7.82562 281H63.5119C75.1073 281 84.6862 272.406 84.6862 261.97C84.8123 251.534 75.3594 242.94 63.7639 242.94Z" fill="#F9F9F9"/>
<path d="M435.382 87.9395H427.946C427.946 87.8167 427.946 87.5712 427.946 87.4484C427.946 70.6281 413.704 57 396.058 57C378.413 57 364.171 70.6281 364.171 87.4484C364.171 87.5712 364.171 87.8167 364.171 87.9395H363.793C352.197 87.9395 342.618 96.5338 342.618 106.97C342.618 117.406 352.071 126 363.793 126H435.13C446.726 126 456.305 117.406 456.305 106.97C456.431 96.5338 446.978 87.9395 435.382 87.9395Z" fill="#3575EF"/>
<path d="M168.426 89.5887H164.704C164.704 89.4679 164.704 89.4679 164.704 89.347C164.704 80.888 157.509 74 148.701 74C139.894 74 132.698 80.888 132.698 89.347C132.698 89.4679 132.698 89.4679 132.698 89.5887H132.574C126.744 89.5887 121.906 93.9391 121.906 99.1353C121.906 104.452 126.744 108.682 132.574 108.682H168.55C174.38 108.682 179.219 104.332 179.219 99.1353C179.094 93.9391 174.256 89.5887 168.426 89.5887Z" fill="#F9F9F9"/>
<path d="M446.778 207.839H441.319C441.319 207.718 441.319 207.598 441.319 207.477C441.319 195.03 430.775 185 417.873 185C404.972 185 394.427 195.03 394.427 207.477C394.427 207.598 394.427 207.718 394.427 207.839H394.179C385.619 207.839 378.548 214.123 378.548 221.857C378.548 229.591 385.495 235.875 394.179 235.875H446.778C455.338 235.875 462.409 229.591 462.409 221.857C462.409 214.123 455.462 207.839 446.778 207.839Z" fill="#F9F9F9"/>
<path d="M173.791 380.765H169.271C168.655 380.765 168.141 380.265 168.141 379.664C168.141 379.064 168.655 378.564 169.271 378.564H173.791C178.926 378.564 183.035 374.361 183.035 369.259V367.358C183.035 366.757 183.548 366.257 184.165 366.257C184.781 366.257 185.294 366.757 185.294 367.358V369.259C185.397 375.562 180.159 380.765 173.791 380.765Z" fill="#659BFF"/>
<path fill-rule="evenodd" clip-rule="evenodd" d="M144.93 302.473C146.851 289.193 158.362 279 172.25 279C187.426 279 199.89 291.376 199.89 306.425V314.529C199.89 314.58 199.911 314.7 200.073 314.905C200.235 315.111 200.486 315.335 200.81 315.572C201.13 315.805 201.481 316.023 201.826 316.231C201.87 316.258 201.915 316.285 201.96 316.312C202.237 316.479 202.532 316.656 202.749 316.813C204.28 317.88 205.485 319.057 206.673 320.635L206.675 320.637C209.547 324.471 211.547 329.205 212.701 334.107C213.813 338.54 214.237 343.05 214.451 347.515C221.192 352.375 225.567 360.853 225.465 370.465V373.261C225.465 387.952 215.099 400.285 202.036 400.285H136.095C123.033 400.285 112.667 387.952 112.667 373.261V370.459C112.667 360.866 117.128 352.303 123.763 347.528C123.771 346.886 123.791 346.248 123.811 345.622L123.811 345.614C123.837 344.811 123.862 344.026 123.862 343.244V343.228L123.863 343.212C123.914 341.68 123.914 340.09 123.912 338.457L123.912 338.296C123.91 336.72 123.909 335.106 123.953 333.5C124.043 330.185 124.328 326.834 125.237 323.76C126.625 318.873 129.397 314.618 132.806 311.402L132.811 311.397L132.816 311.392C134.615 309.743 136.627 308.297 138.752 307.155C138.925 307.051 139.151 306.958 139.325 306.888C139.55 306.798 139.828 306.693 140.128 306.582C140.17 306.566 140.212 306.55 140.255 306.534C140.836 306.318 141.509 306.067 142.157 305.796L142.174 305.789L142.19 305.783C143.69 305.215 144.677 304.017 144.93 302.473ZM172.25 281.021C159.436 281.021 148.763 290.434 146.983 302.763L146.981 302.772L146.98 302.78C146.616 305.028 145.144 306.826 142.959 307.66C142.276 307.945 141.573 308.207 141.002 308.42C140.957 308.436 140.913 308.453 140.87 308.469C140.566 308.582 140.312 308.678 140.116 308.756C139.972 308.814 139.896 308.849 139.866 308.863C139.848 308.871 139.846 308.872 139.855 308.866L139.818 308.89L139.779 308.911C137.808 309.967 135.929 311.314 134.244 312.858C131.082 315.844 128.516 319.789 127.235 324.303L127.232 324.314C126.395 327.142 126.115 330.292 126.026 333.554C125.983 335.132 125.985 336.72 125.986 338.305L125.987 338.455C125.988 340.078 125.988 341.696 125.937 343.261C125.936 344.072 125.911 344.88 125.885 345.67L125.885 345.677C125.859 346.48 125.834 347.265 125.834 348.047V348.572L125.393 348.874C119.122 353.169 114.741 361.251 114.741 370.459V373.261C114.741 387.185 124.507 398.264 136.095 398.264H202.036C213.625 398.264 223.39 387.185 223.39 373.261V370.459L223.391 370.448C223.49 361.248 219.215 353.267 212.838 348.872L212.423 348.586L212.401 348.091C212.197 343.512 211.79 338.987 210.684 334.58L210.682 334.572L210.68 334.565C209.575 329.865 207.672 325.397 204.999 321.829C203.93 320.408 202.877 319.386 201.536 318.453L201.526 318.446L201.517 318.439C201.38 318.339 201.174 318.215 200.878 318.036C200.832 318.008 200.783 317.979 200.732 317.948C200.383 317.738 199.964 317.48 199.565 317.188C199.171 316.9 198.753 316.549 198.428 316.135C198.101 315.722 197.815 315.178 197.815 314.529V306.425C197.815 292.457 186.244 281.021 172.25 281.021Z" fill="#659BFF"/>
<path d="M169.271 440.497C168.655 440.497 168.141 439.996 168.141 439.396V315.629C168.141 315.029 168.655 314.529 169.271 314.529C169.888 314.529 170.401 315.029 170.401 315.629V439.396C170.401 439.996 169.888 440.497 169.271 440.497Z" fill="#659BFF"/>
<path d="M169.271 340.943H161.671C156.638 340.943 152.426 335.941 152.426 329.837V329.137C152.426 328.537 152.94 328.036 153.556 328.036C154.173 328.036 154.686 328.537 154.686 329.137V329.837C154.686 334.64 157.767 338.642 161.568 338.642H169.169C169.785 338.642 170.298 339.142 170.298 339.743C170.298 340.343 169.888 340.943 169.271 340.943Z" fill="#659BFF"/>
<path d="M174.51 352.349H169.169C168.552 352.349 168.039 351.849 168.039 351.249C168.039 350.648 168.552 350.148 169.169 350.148H174.51C180.57 350.148 185.5 345.946 185.5 340.843V338.942C185.5 338.342 186.013 337.841 186.63 337.841C187.246 337.841 187.76 338.342 187.76 338.942V340.843C187.965 347.146 181.905 352.349 174.51 352.349Z" fill="#659BFF"/>
<path d="M169.271 367.258H163.725C155.816 367.258 149.653 363.556 149.653 358.853V357.552C149.653 356.952 150.167 356.452 150.783 356.452C151.399 356.452 151.913 356.952 151.913 357.552V358.853C151.913 362.155 157.254 364.956 163.622 364.956H169.169C169.785 364.956 170.298 365.457 170.298 366.057C170.298 366.657 169.888 367.258 169.271 367.258Z" fill="#659BFF"/>
<path d="M69.4682 416.228H65.6033C65.0763 416.228 64.6371 415.799 64.6371 415.284C64.6371 414.77 65.0763 414.341 65.6033 414.341H69.4682C73.8602 414.341 77.3737 410.739 77.3737 406.365V404.736C77.3737 404.221 77.8129 403.792 78.3399 403.792C78.867 403.792 79.3061 404.221 79.3061 404.736V406.365C79.394 411.768 74.9142 416.228 69.4682 416.228Z" fill="#659BFF"/>
<path fill-rule="evenodd" clip-rule="evenodd" d="M44.7867 349.12C46.4301 337.737 56.2738 329 68.1506 329C81.129 329 91.7879 339.608 91.7879 352.507V359.454C91.7879 359.498 91.8065 359.6 91.9448 359.776C92.0835 359.952 92.2975 360.144 92.5749 360.347C92.8485 360.548 93.1491 360.734 93.4436 360.913C93.4813 360.936 93.5198 360.959 93.5587 360.982C93.7954 361.125 94.0478 361.277 94.2332 361.412C95.5427 362.326 96.5733 363.335 97.5891 364.688L97.5904 364.689C100.047 367.976 101.757 372.033 102.744 376.235C103.695 380.035 104.058 383.9 104.241 387.727C110.005 391.894 113.747 399.16 113.66 407.399V409.796C113.66 422.388 104.795 432.96 93.6238 432.96H37.2315C26.0607 432.96 17.1956 422.388 17.1956 409.796V407.394C17.1956 399.172 21.0109 391.832 26.685 387.739C26.6916 387.189 26.7091 386.642 26.7263 386.105L26.7265 386.098C26.7486 385.41 26.77 384.737 26.77 384.067V384.053L26.7705 384.039C26.8139 382.727 26.814 381.363 26.8126 379.964L26.8124 379.826C26.8111 378.475 26.8097 377.092 26.8472 375.715C26.9247 372.873 27.1684 370.001 27.9453 367.366C29.1328 363.177 31.5034 359.53 34.4183 356.773L34.4229 356.769L34.4276 356.765C35.9653 355.352 37.6862 354.112 39.5036 353.133C39.6516 353.044 39.8448 352.964 39.9939 352.904C40.1858 352.827 40.4241 352.737 40.6803 352.642C40.716 352.628 40.7521 352.615 40.7886 352.601C41.286 352.415 41.8611 352.2 42.4159 351.968L42.4298 351.962L42.4438 351.957C43.7268 351.47 44.5703 350.443 44.7867 349.12ZM68.1506 330.732C57.1922 330.732 48.0645 338.801 46.5424 349.369L46.5414 349.376L46.5402 349.383C46.2285 351.31 44.9703 352.851 43.1013 353.566C42.517 353.81 41.9164 354.034 41.4274 354.217C41.3892 354.231 41.3516 354.245 41.3148 354.259C41.055 354.356 40.8377 354.438 40.67 354.506C40.5466 354.555 40.4822 354.585 40.4563 354.597C40.4409 354.604 40.4391 354.605 40.4465 354.6L40.4151 354.62L40.382 354.638C38.6964 355.543 37.0892 356.698 35.6482 358.022C32.9445 360.581 30.7501 363.963 29.6539 367.832L29.6514 367.841C28.9361 370.265 28.6969 372.965 28.6207 375.761C28.5838 377.113 28.5852 378.475 28.5866 379.833L28.5867 379.962C28.5881 381.353 28.5882 382.74 28.5441 384.081C28.5439 384.776 28.5217 385.469 28.5 386.146L28.4998 386.153C28.4778 386.841 28.4563 387.513 28.4563 388.184V388.634L28.0795 388.892C22.716 392.574 18.9698 399.502 18.9698 407.394V409.796C18.9698 421.731 27.321 431.227 37.2315 431.227H93.6238C103.534 431.227 111.886 421.731 111.886 409.796V407.394L111.886 407.385C111.971 399.499 108.314 392.658 102.861 388.891L102.507 388.645L102.488 388.221C102.313 384.297 101.965 380.418 101.019 376.64L101.017 376.634L101.016 376.628C100.07 372.599 98.4432 368.769 96.1576 365.711C95.2428 364.493 94.3428 363.617 93.196 362.817L93.1877 362.811L93.1794 362.805C93.0627 362.72 92.8865 362.613 92.6333 362.46C92.5935 362.436 92.5519 362.411 92.5084 362.385C92.21 362.204 91.8517 361.983 91.5105 361.733C91.173 361.486 90.8161 361.185 90.5375 360.831C90.2586 360.476 90.0137 360.01 90.0137 359.454V352.507C90.0137 340.535 80.1184 330.732 68.1506 330.732Z" fill="#659BFF"/>
<path d="M65.6033 467.427C65.0763 467.427 64.6371 466.998 64.6371 466.484V360.397C64.6371 359.882 65.0763 359.454 65.6033 359.454C66.1304 359.454 66.5695 359.882 66.5695 360.397V466.484C66.5695 466.998 66.1304 467.427 65.6033 467.427Z" fill="#659BFF"/>
<path d="M65.6033 382.095H59.1032C54.7992 382.095 51.1978 377.807 51.1978 372.575V371.975C51.1978 371.46 51.637 371.032 52.164 371.032C52.691 371.032 53.1302 371.46 53.1302 371.975V372.575C53.1302 376.692 55.7654 380.122 59.0154 380.122H65.5155C66.0425 380.122 66.4817 380.551 66.4817 381.066C66.4817 381.58 66.1303 382.095 65.6033 382.095Z" fill="#659BFF"/>
<path d="M70.0831 391.871H65.5155C64.9885 391.871 64.5493 391.443 64.5493 390.928C64.5493 390.413 64.9885 389.985 65.5155 389.985H70.0831C75.2656 389.985 79.4818 386.383 79.4818 382.009V380.379C79.4818 379.865 79.921 379.436 80.4481 379.436C80.9751 379.436 81.4143 379.865 81.4143 380.379V382.009C81.59 387.412 76.4075 391.871 70.0831 391.871Z" fill="#659BFF"/>
<path d="M65.6033 404.65H60.86C54.0965 404.65 48.8262 401.477 48.8262 397.446V396.331C48.8262 395.817 49.2654 395.388 49.7924 395.388C50.3194 395.388 50.7586 395.817 50.7586 396.331V397.446C50.7586 400.276 55.3262 402.678 60.7722 402.678H65.5155C66.0425 402.678 66.4817 403.106 66.4817 403.621C66.4817 404.136 66.1304 404.65 65.6033 404.65Z" fill="#659BFF"/>
<path fill-rule="evenodd" clip-rule="evenodd" d="M341.005 322.473C342.926 309.193 354.437 299 368.325 299C383.501 299 395.965 311.376 395.965 326.425V334.529C395.965 334.58 395.986 334.7 396.148 334.905C396.31 335.111 396.561 335.335 396.885 335.572C397.205 335.805 397.556 336.023 397.901 336.231C397.945 336.258 397.99 336.285 398.035 336.312C398.312 336.479 398.607 336.656 398.824 336.813C400.355 337.88 401.56 339.057 402.748 340.635L402.75 340.637C405.622 344.471 407.622 349.205 408.776 354.107C409.888 358.54 410.312 363.05 410.526 367.515C417.267 372.375 421.642 380.853 421.54 390.465V393.261C421.54 407.952 411.174 420.285 398.111 420.285H332.17C319.108 420.285 308.742 407.952 308.742 393.261V390.459C308.742 380.866 313.203 372.303 319.838 367.528C319.846 366.886 319.866 366.248 319.886 365.622L319.886 365.614C319.912 364.811 319.937 364.026 319.937 363.244V363.228L319.938 363.212C319.988 361.68 319.989 360.09 319.987 358.457L319.987 358.296C319.985 356.72 319.984 355.106 320.027 353.5C320.118 350.185 320.403 346.834 321.311 343.76C322.7 338.873 325.472 334.618 328.881 331.402L328.886 331.397L328.891 331.392C330.69 329.743 332.702 328.297 334.827 327.155C335 327.051 335.226 326.958 335.4 326.888C335.625 326.798 335.903 326.693 336.203 326.582C336.245 326.566 336.287 326.55 336.33 326.534C336.911 326.318 337.584 326.067 338.232 325.796L338.249 325.789L338.265 325.783C339.765 325.215 340.752 324.017 341.005 322.473ZM368.325 301.021C355.511 301.021 344.837 310.434 343.058 322.763L343.056 322.772L343.055 322.78C342.691 325.028 341.219 326.826 339.034 327.66C338.351 327.945 337.648 328.207 337.077 328.42C337.032 328.436 336.988 328.453 336.945 328.469C336.641 328.582 336.387 328.678 336.191 328.756C336.047 328.814 335.971 328.849 335.941 328.863C335.923 328.871 335.921 328.872 335.93 328.866L335.893 328.89L335.854 328.911C333.883 329.967 332.004 331.314 330.319 332.858C327.157 335.844 324.591 339.789 323.309 344.303L323.306 344.314C322.47 347.142 322.19 350.292 322.101 353.554C322.058 355.132 322.06 356.72 322.061 358.305L322.061 358.455C322.063 360.078 322.063 361.696 322.012 363.261C322.011 364.072 321.985 364.88 321.96 365.67L321.96 365.677C321.934 366.48 321.909 367.265 321.909 368.047V368.572L321.468 368.874C315.197 373.169 310.816 381.251 310.816 390.459V393.261C310.816 407.185 320.581 418.264 332.17 418.264H398.111C409.7 418.264 419.465 407.185 419.465 393.261V390.459L419.465 390.448C419.565 381.248 415.289 373.267 408.913 368.872L408.498 368.586L408.476 368.091C408.272 363.512 407.865 358.987 406.759 354.58L406.757 354.572L406.755 354.565C405.649 349.865 403.747 345.397 401.074 341.829C400.005 340.408 398.952 339.386 397.611 338.453L397.601 338.446L397.592 338.439C397.455 338.339 397.249 338.215 396.953 338.036C396.907 338.008 396.858 337.979 396.807 337.948C396.458 337.738 396.039 337.48 395.64 337.188C395.246 336.9 394.828 336.549 394.503 336.135C394.176 335.722 393.89 335.178 393.89 334.529V326.425C393.89 312.457 382.319 301.021 368.325 301.021Z" fill="#659BFF"/>
<path d="M365.346 460.497C364.73 460.497 364.216 459.996 364.216 459.396V335.629C364.216 335.029 364.73 334.529 365.346 334.529C365.962 334.529 366.476 335.029 366.476 335.629V459.396C366.476 459.996 365.962 460.497 365.346 460.497Z" fill="#659BFF"/>
<path d="M365.346 360.943H357.745C352.713 360.943 348.501 355.941 348.501 349.837V349.137C348.501 348.537 349.015 348.036 349.631 348.036C350.247 348.036 350.761 348.537 350.761 349.137V349.837C350.761 354.64 353.842 358.642 357.643 358.642H365.243C365.86 358.642 366.373 359.142 366.373 359.743C366.373 360.343 365.962 360.943 365.346 360.943Z" fill="#659BFF"/>
<path d="M370.585 372.349H365.244C364.627 372.349 364.114 371.849 364.114 371.249C364.114 370.648 364.627 370.148 365.244 370.148H370.585C376.645 370.148 381.575 365.946 381.575 360.843V358.942C381.575 358.342 382.088 357.841 382.705 357.841C383.321 357.841 383.834 358.342 383.834 358.942V360.843C384.04 367.146 377.98 372.349 370.585 372.349Z" fill="#659BFF"/>
<path d="M369.866 400.765H365.346C364.73 400.765 364.216 400.265 364.216 399.664C364.216 399.064 364.73 398.564 365.346 398.564H369.866C375.001 398.564 379.11 394.361 379.11 389.259V387.358C379.11 386.757 379.623 386.257 380.239 386.257C380.856 386.257 381.369 386.757 381.369 387.358V389.259C381.472 395.562 376.234 400.765 369.866 400.765Z" fill="#659BFF"/>
<path d="M365.346 387.258H359.8C351.891 387.258 345.728 383.556 345.728 378.853V377.552C345.728 376.952 346.242 376.452 346.858 376.452C347.474 376.452 347.988 376.952 347.988 377.552V378.853C347.988 382.155 353.329 384.956 359.697 384.956H365.243C365.86 384.956 366.373 385.457 366.373 386.057C366.373 386.657 365.962 387.258 365.346 387.258Z" fill="#659BFF"/>
<path d="M254.614 287.006C251.581 276.212 255.79 271.569 267.738 270.664C279.685 269.76 287.052 273.016 286.062 279.468C285.071 285.921 279.128 290.021 279.128 290.021L254.614 287.006Z" fill="#77A9FF"/>
<path d="M258.019 285.499C255.667 277.117 258.948 273.499 268.233 272.835C277.519 272.112 283.214 274.705 282.471 279.71C281.728 284.715 277.085 287.911 277.085 287.911L258.019 285.499Z" fill="#2970D6"/>
<path d="M276.157 278.926V346.886H256.038L256.348 339.71L256.409 338.022L256.843 329.338L256.905 327.65L257.276 318.906L257.338 317.278L257.771 308.534L257.833 306.846L258.205 298.162L258.267 296.474L258.7 287.79L258.762 286.102L258.948 281.941L261.486 280.855L263.838 279.83L273.062 278.021L276.157 278.926Z" fill="white"/>
<path d="M276.157 286.102V287.79H258.7L258.762 286.102H276.157Z" fill="#CFD7FF"/>
<path d="M276.157 296.474V298.162H258.205L258.267 296.474H276.157Z" fill="#CFD7FF"/>
<path d="M276.157 306.846V308.534H257.771L257.833 306.846H276.157Z" fill="#CFD7FF"/>
<path d="M276.157 317.278V318.906H257.276L257.338 317.278H276.157Z" fill="#CFD7FF"/>
<path d="M276.157 327.65V329.338H256.843L256.905 327.65H276.157Z" fill="#CFD7FF"/>
<path d="M276.157 338.022V339.71H256.348L256.409 338.022H276.157Z" fill="#CFD7FF"/>
<path d="M241.243 327.951C242.357 331.207 247.062 340.675 247.248 342.966C247.433 345.559 240.872 352.434 238.705 351.167C237.219 350.323 232.329 341.7 229.667 335.368C228.491 332.534 227.748 330.122 227.996 329.097C228.119 328.554 228.553 327.107 229.234 325.056C232.453 315.227 240.995 291.71 247.248 287.006L251.086 308.473C251.086 308.473 248.981 311.971 246.752 315.951C245.452 318.182 244.152 320.594 243.038 322.584C242.853 323.006 242.605 323.368 242.419 323.73C241.553 325.418 240.995 326.624 240.995 326.986C240.995 327.167 241.119 327.469 241.243 327.951Z" fill="#77A9FF"/>
<path d="M248.795 366.544C248.795 366.544 245.576 367.328 244.524 366.001C243.533 364.675 242.605 358.645 242.605 358.645C242.605 358.645 241.614 358.162 240.81 354.665C240.005 351.167 239.633 346.102 242.914 344.172C244.957 341.7 248.238 343.026 248.238 343.026L248.362 347.489L248.795 366.544Z" fill="#FFC299"/>
<path d="M248.795 366.544C248.795 366.544 245.576 367.328 244.524 366.002C243.533 364.675 242.605 358.645 242.605 358.645C244.895 359.007 244.648 357.318 244.524 353.519C245.205 354.544 246.319 356.836 245.824 353.519C245.391 350.203 245.081 346.645 247.248 346.886C247.619 346.946 247.929 347.127 248.3 347.489L248.795 366.544Z" fill="#EAA781"/>
<path d="M247.248 287.006L258.948 281.941L256.038 346.886H246.195L247.248 287.006Z" fill="#77A9FF"/>
<path d="M289.838 283.086V346.886H276.157V278.926L277.024 279.227L289.838 283.086Z" fill="#77A9FF"/>
<path d="M289.838 306.846V346.826H276.157V324.695C280.614 316.494 284.452 307.63 285.319 300.333L289.838 306.846Z" fill="#2970D6"/>
<path d="M276.157 324.755V346.886H262.228C265.447 342.303 271.205 333.921 276.157 324.755Z" fill="#CCD6FF"/>
<path d="M246.752 301.177V315.951C245.452 318.182 244.152 320.594 243.038 322.584C242.481 314.745 246.752 301.177 246.752 301.177Z" fill="#2970D6"/>
<path d="M240.995 326.986C240.995 327.167 241.057 327.469 241.243 327.891C241.057 327.649 238.086 323.79 238.024 322.162C237.962 321.016 240.686 322.584 242.419 323.73C241.552 325.418 240.995 326.624 240.995 326.986Z" fill="#2970D6"/>
<path d="M229.729 335.368C228.553 332.534 227.81 330.122 228.057 329.097C228.181 328.554 228.614 327.107 229.295 325.057C230.162 326.142 230.843 327.529 231.091 329.157C231.462 331.63 230.905 333.921 229.729 335.368Z" fill="#2970D6"/>
<path d="M255.048 285.619V304.554" stroke="white" stroke-width="1.20843" stroke-miterlimit="10" stroke-linecap="round" stroke-linejoin="round"/>
<path d="M279.562 285.619V304.554" stroke="white" stroke-width="1.20843" stroke-miterlimit="10" stroke-linecap="round" stroke-linejoin="round"/>
<path d="M303.828 453.199H289.59C289.59 453.199 279.624 420.696 277.766 413.46C275.847 406.223 272.009 394.826 272.009 394.826L271.514 405.319L271.452 406.465C273.186 414.183 270.09 454.525 270.09 454.525H254.305L251.272 414.123L250.033 398.022L246.195 347.429L246.133 346.826H289.776C290.271 348.756 290.828 352.434 291.447 356.897C293.119 369.379 294.852 387.59 294.852 387.59C294.852 387.59 297.142 394.103 299.866 409.178C302.714 424.254 303.828 453.199 303.828 453.199Z" fill="#292265"/>
<path d="M291.509 356.897C285.133 358.283 275.043 362.505 275.043 362.505L265.076 358.645C265.076 358.645 269.162 351.53 268.171 349.54C267.243 347.731 256.595 347.248 246.195 347.429L246.133 346.826H289.776C290.333 348.756 290.89 352.434 291.509 356.897Z" fill="#1D1B4C"/>
<path d="M272.009 394.827L271.514 405.319C268.605 393.862 263.281 377.822 264.519 371.61L272.009 394.827Z" fill="#1D1B4C"/>
<path d="M284.824 405.198C285.752 409.661 284.576 413.64 282.285 414.123C279.995 414.545 277.333 411.289 276.405 406.826C275.476 402.364 276.652 398.384 278.943 397.902C281.233 397.419 283.895 400.676 284.824 405.198Z" fill="#1D1B4C"/>
<path d="M252.076 414.244C251.829 414.244 251.519 414.244 251.272 414.183L250.033 398.083C250.343 397.902 250.714 397.781 251.086 397.781C253.438 397.661 255.605 401.218 255.852 405.801C256.1 410.324 254.429 414.123 252.076 414.244Z" fill="#1D1B4C"/>
<path d="M255.914 456.093L242.419 462.063C241.367 462.545 240.748 463.51 240.748 464.596C240.748 466.163 242.048 467.369 243.595 467.369H268.171C270.028 467.369 271.39 465.681 270.957 463.993L269.1 455.852H257.091C256.657 455.852 256.286 455.972 255.914 456.093Z" fill="#281A47"/>
<path d="M270.09 456.937H253.438C252.943 456.937 252.51 456.515 252.51 456.033V453.681C252.51 453.199 252.943 452.776 253.438 452.776H270.09C270.586 452.776 271.019 453.199 271.019 453.681V456.033C271.019 456.575 270.647 456.937 270.09 456.937Z" fill="#1D1B4C"/>
<path d="M290.209 456.093L276.714 462.063C275.662 462.545 275.043 463.51 275.043 464.595C275.043 466.163 276.343 467.369 277.89 467.369H302.466C304.323 467.369 305.685 465.681 305.252 463.992L303.395 455.852H291.385C290.952 455.852 290.581 455.972 290.209 456.093Z" fill="#281A47"/>
<path d="M304.757 456.937H288.104C287.609 456.937 287.176 456.515 287.176 456.033V453.681C287.176 453.198 287.609 452.776 288.104 452.776H304.757C305.252 452.776 305.685 453.198 305.685 453.681V456.033C305.685 456.575 305.252 456.937 304.757 456.937Z" fill="#1D1B4C"/>
<path d="M272.133 271.207C277.89 271.991 278.943 267.227 279.562 264.514C280.243 261.74 283.709 255.77 282.657 252.996C281.604 250.222 279.19 251.308 279.19 251.308C279.19 251.308 281.604 247.267 279.871 243.348C278.138 239.428 274.733 239.066 268.914 240.152C263.095 241.237 250.652 241.298 247.805 239.428C244.957 237.499 243.657 242.564 245.7 245.217C247.743 247.87 251.457 249.559 251.457 249.559C251.457 249.559 248.424 248.473 247.743 249.8C247.062 251.127 247.619 254.504 254.367 256.011C261.114 257.458 265.324 260.051 265.324 260.051L272.133 271.207Z" fill="#1D1B4C"/>
<path d="M274.733 279.83C274.733 279.83 274.238 282.242 269.285 283.448C264.333 284.655 263.219 282.303 263.219 282.303L262.847 279.83L262.105 274.946L273.928 267.589V267.649C273.804 267.951 273.743 268.433 273.681 268.976C273.371 272.474 274.733 279.83 274.733 279.83Z" fill="#F4BA92"/>
<path d="M273.866 267.649C273.805 268.071 273.743 268.493 273.619 269.036C272.876 272.293 270.462 278.383 262.786 279.891L262.043 275.006L273.866 267.649Z" fill="#EAA781"/>
<path d="M254.181 253.418C252.633 257.157 254.243 259.569 254.181 261.74C254.119 263.851 252.571 276.393 261.052 276.815C269.595 277.238 276.033 266.142 276.033 266.142L276.776 265.298C276.776 265.298 277.271 267.167 280.119 265.901C282.966 264.695 282.038 259.931 279.933 259.629C277.828 259.328 274.857 263.368 274.857 263.368L272.566 254.624C272.628 254.624 262.6 256.132 254.181 253.418Z" fill="#FFC299"/>
<path d="M267.119 268.011C268.247 268.011 269.162 267.363 269.162 266.564C269.162 265.765 268.247 265.117 267.119 265.117C265.991 265.117 265.076 265.765 265.076 266.564C265.076 267.363 265.991 268.011 267.119 268.011Z" fill="#F4BA92"/>
<path d="M256.348 268.011C257.476 268.011 258.39 267.363 258.39 266.564C258.39 265.765 257.476 265.117 256.348 265.117C255.219 265.117 254.305 265.765 254.305 266.564C254.305 267.363 255.219 268.011 256.348 268.011Z" fill="#F4BA92"/>
<path d="M280.366 262.946C280.614 261.68 279.995 261.378 279.314 261.439C278.633 261.499 277.147 263.79 278.324 264.454" stroke="#EAA781" stroke-width="1.06426" stroke-miterlimit="10" stroke-linecap="round" stroke-linejoin="round"/>
<path d="M260.619 262.222V264.514L259.752 265.358C259.381 265.72 259.629 266.323 260.124 266.323H261.548" stroke="#EAA781" stroke-width="1.06426" stroke-miterlimit="10" stroke-linecap="round" stroke-linejoin="round"/>
<path d="M260.805 269.941C260.805 269.941 263.528 271.027 265.262 269.037" stroke="#EAA781" stroke-width="1.06426" stroke-miterlimit="10" stroke-linecap="round" stroke-linejoin="round"/>
<path d="M266.005 263.73C266.517 263.73 266.933 263.325 266.933 262.825C266.933 262.325 266.517 261.92 266.005 261.92C265.492 261.92 265.076 262.325 265.076 262.825C265.076 263.325 265.492 263.73 266.005 263.73Z" fill="#1D1B4C"/>
<path d="M257.709 262.825C257.709 263.307 257.276 263.73 256.781 263.73C256.286 263.73 255.852 263.307 255.852 262.825C255.852 262.343 256.286 261.92 256.781 261.92C257.276 261.92 257.709 262.343 257.709 262.825Z" fill="#1D1B4C"/>
<path d="M263.838 259.448C263.838 259.448 265.943 258.484 268.233 259.569" stroke="#1D1B4C" stroke-width="1.20843" stroke-miterlimit="10" stroke-linecap="round" stroke-linejoin="round"/>
<path d="M258.948 259.448C258.948 259.448 256.843 258.484 254.552 259.569" stroke="#1D1B4C" stroke-width="1.20843" stroke-miterlimit="10" stroke-linecap="round" stroke-linejoin="round"/>
<path d="M269.966 363.228C281.047 359.127 292.376 373.6 285.443 376.796C278.509 379.992 280.8 363.409 269.966 363.891C259.133 364.374 252.695 374.203 249.971 389.037C247.186 403.871 227.996 422.324 210.848 422.565C193.701 422.806 178.596 433.721 178.596 433.721" stroke="#281A47" stroke-width="2.41686" stroke-miterlimit="10"/>
<path d="M269.1 356.354C269.1 356.354 263.714 359.188 263.652 359.912C263.59 360.575 262.167 365.52 263.652 365.339C265.138 365.158 270.028 363.289 270.028 363.289L271.019 358.826L269.1 356.354Z" fill="#EAA781"/>
<path d="M271.328 352.736C269.162 354.967 264.828 362.082 263.962 363.831C263.095 365.58 261.176 368.776 262.724 369.982C264.209 371.128 265.633 369.982 265.633 369.982C265.633 369.982 266.252 371.309 269.347 371.007C272.443 370.706 273.681 369.017 273.681 369.017C273.681 369.017 275.538 368.776 275.909 366.907C276.281 365.037 277.147 361.419 277.024 360.213C276.9 359.007 277.024 355.691 277.024 355.691L271.328 352.736Z" fill="#FFC299"/>
<path d="M299.804 308.233C299.742 311.73 299.618 315.71 299.247 319.449C298.876 323.489 298.195 327.228 297.142 329.459C296.833 330.122 296.276 331.329 295.471 332.836C291.447 341.037 282.285 358.826 279.623 358.645C276.466 358.404 269.657 354.123 269.905 352.736C270.152 351.409 285.257 325.238 285.628 319.992C286 314.746 282.781 285.017 289.714 283.087C299.804 287.971 299.928 300.997 299.804 308.233Z" fill="#77A9FF"/>
<path d="M299.247 319.449C298.876 323.489 298.195 327.228 297.142 329.459C296.833 330.122 296.276 331.329 295.471 332.836C293.057 332.052 291.757 328.675 292.561 325.057C293.428 321.318 296.338 318.786 298.999 319.389C299.123 319.389 299.185 319.449 299.247 319.449Z" fill="#2970D6"/>
<path d="M197.786 439.872C199.829 438.605 205.215 432.032 201.686 426.967C201.686 426.967 197.663 432.816 193.515 433.6L197.786 439.872Z" fill="#E09B36"/>
<path d="M140.897 400.977C137.925 400.856 129.94 388.796 127.525 388.615C125.111 388.434 136.006 383.067 149.625 392.896L140.897 400.977Z" fill="#FABA50"/>
<path d="M141.206 400.434C138.854 400.313 132.292 388.796 130.373 388.675C128.454 388.555 137.306 385.962 148.263 393.921L141.206 400.434Z" fill="#CE413E"/>
<path d="M141.392 400.133C139.349 399.891 134.397 389.459 132.725 389.218C131.054 388.977 138.916 387.288 147.954 394.947L141.392 400.133Z" fill="#E25E54"/>
<path d="M175.934 401.037C179.153 400.736 187.944 388.313 190.605 388.012C193.267 387.71 181.32 382.886 166.401 393.439L175.934 401.037Z" fill="#FABA50"/>
<path d="M187.386 441.439C187.51 442.344 189.739 453.439 188.625 455.912C188.625 455.912 179.896 469.239 179.029 473.218L174.387 473.098L173.148 457.48L187.386 441.439Z" fill="#E09B36"/>
<path d="M199.272 473.218C200.943 464.474 205.896 452.233 201.439 441.198C197.043 430.163 189.739 428.836 178.658 430.283C167.577 431.67 140.525 429.017 140.525 429.017C140.525 429.017 139.225 452.836 140.03 457.66C140.835 462.484 147.335 473.279 147.335 473.279H151.73L153.339 467.61C153.339 467.61 182.558 467.912 191.163 463.088L195.248 473.218H199.272V473.218Z" fill="#FABA50"/>
<path d="M177.853 465.017C177.853 465.017 181.196 460.857 181.939 456.877C182.682 452.957 180.206 445.54 180.206 445.54L173.458 465.5L177.853 465.017Z" fill="#E09B36"/>
<path d="M140.587 429.017C140.587 429.017 167.639 431.67 178.72 430.283C182.248 429.861 185.405 429.68 188.129 429.982C185.405 435.409 175.129 459.53 176.863 461.339C178.472 462.967 187.758 465.379 192.339 457.781C193.267 462.726 196.239 471.711 197.539 473.218H195.186L189.739 465.017C181.134 469.841 153.525 467.851 153.525 467.851L151.73 473.158H147.334C147.334 473.158 140.835 462.364 140.03 457.54C139.287 452.836 140.587 429.017 140.587 429.017Z" fill="#E09B36"/>
<path d="M180.453 441.138C180.577 442.042 182.929 453.077 181.753 455.61C181.753 455.61 172.529 469.178 171.601 473.218H166.649L165.349 457.6L180.453 441.138Z" fill="#FABA50"/>
<path d="M180.453 441.138C180.515 441.379 180.763 442.826 181.072 444.394C176.615 449.098 166.772 466.163 172.158 470.746C172.282 470.867 172.406 470.806 172.591 470.867C172.158 471.831 171.787 472.676 171.663 473.279H166.71L165.41 457.66L180.453 441.138Z" fill="#E09B36"/>
<path d="M174.696 399.59C177.172 399.349 185.715 390.183 188.005 388.555C189.615 387.349 177.42 388.675 168.753 393.801L174.696 399.59Z" fill="#CE413E"/>
<path d="M173.768 399.168C175.872 398.987 183.177 391.087 185.158 389.7C186.582 388.675 176.12 389.821 168.63 394.163L173.768 399.168Z" fill="#E25E54"/>
<path d="M156.992 465.62C167.639 460.193 187.572 436.856 189.12 422.263C189.12 422.263 176.491 395.79 169.62 393.499C162.749 391.207 147.087 391.449 144.116 394.283C141.144 397.057 130.435 417.62 129.568 422.323C136.254 443.308 142.011 455.73 156.992 465.62Z" fill="#E09B36"/>
<path d="M156.373 462.545C166.215 457.299 185.158 435.831 186.582 421.841C186.582 421.841 174.387 395.61 168.01 393.439C161.634 391.268 147.211 391.509 144.487 394.163C141.701 396.816 131.858 416.474 131.054 420.997C137.182 441.198 142.506 453.078 156.373 462.545Z" fill="#FABA50"/>
<path d="M149.749 414.062C156.62 414.967 159.963 407.429 170.177 408.032C177.172 408.394 188.067 420.092 184.601 435.108C177.729 447.892 164.853 462.062 156.992 466.042C142.011 456.153 135.944 443.369 129.259 422.263C130.125 416.414 134.768 411.59 135.882 411.349C138.297 410.866 142.816 413.158 149.749 414.062Z" fill="#FFE8CA"/>
<path d="M157.177 462.123C165.039 458.083 177.729 442.344 184.601 429.56C184.848 428.535 184.972 427.57 185.096 426.605C185.406 429.258 185.282 432.093 184.601 435.108C177.729 447.892 165.039 463.51 157.177 467.55C142.197 457.661 136.006 443.429 129.259 422.324C129.444 421.238 129.692 420.273 130.063 419.248C136.439 438.846 142.754 452.656 157.177 462.123Z" fill="#EFCEA8"/>
<path d="M157.487 411.349C156.434 410.082 146.654 405.861 138.049 411.469C136.873 412.253 145.973 418.042 147.025 417.922C148.077 417.801 158.849 412.977 157.487 411.349Z" fill="#68413C"/>
<path d="M199.21 473.219H193.205C193.205 473.219 194.753 470.867 196.61 471.048C198.467 471.289 199.21 473.219 199.21 473.219Z" fill="#FFC37B"/>
<path d="M178.163 473.218H172.158C172.158 473.218 172.468 471.108 174.325 471.289C176.182 471.53 178.163 473.218 178.163 473.218Z" fill="#E09B36"/>
<path d="M170.61 473.218H164.606C164.606 473.218 164.915 471.108 166.772 471.289C168.63 471.53 170.61 473.218 170.61 473.218Z" fill="#FABA50"/>
<path d="M171.353 473.218H167.763C167.763 473.218 167.949 471.108 169.063 471.289C170.177 471.53 171.353 473.218 171.353 473.218Z" fill="#FFC37B"/>
<path d="M150.244 473.218H144.239C144.239 473.218 144.549 471.108 146.406 471.289C148.201 471.53 150.244 473.218 150.244 473.218Z" fill="#E09B36"/>
<path d="M146.839 417.861C146.901 417.861 147.025 417.922 147.025 417.922C147.025 417.922 147.087 417.922 147.149 417.922C148.511 417.62 157.301 413.64 157.611 411.831C155.134 412.495 151.854 412.917 148.263 412.917C144.239 412.917 140.587 412.374 137.987 411.53C137.306 412.374 145.106 417.439 146.839 417.861Z" fill="#4F2A28"/>
<path d="M148.634 416.776C150.12 416.414 155.692 413.459 153.773 413.339C151.111 413.158 148.882 414.002 148.077 414.786C147.211 415.57 146.963 417.138 148.634 416.776Z" fill="#351817"/>
<path d="M143.806 415.57C143.001 415.328 138.854 412.615 140.525 412.856C142.382 413.097 143.682 413.881 144.115 414.424C144.549 414.967 144.611 415.871 143.806 415.57Z" fill="#351817"/>
<path d="M140.03 411.228C140.03 410.685 141.33 410.022 143.001 409.72C144.611 409.419 145.477 409.841 145.477 410.384C145.477 410.927 144.858 411.952 142.754 412.012C141.02 412.012 140.03 411.771 140.03 411.228Z" fill="#84534F"/>
<path d="M145.416 409.359C145.416 409.117 146.097 408.936 146.901 408.936C147.706 408.936 148.387 409.117 148.387 409.359C148.387 409.6 147.706 409.781 146.901 409.781C146.097 409.781 145.416 409.6 145.416 409.359Z" fill="#84534F"/>
<path d="M192.834 452.535C192.834 452.535 194.505 456.334 191.596 462.545L186.458 462.846C186.458 462.846 191.286 460.736 192.834 452.535Z" fill="#E09B36"/>
<path d="M157.053 407.248L155.072 406.826C155.072 406.826 155.568 404.113 156.434 404.595C157.363 405.017 157.053 407.248 157.053 407.248Z" fill="#68413C"/>
<path d="M145.354 406.103L143.435 406.163C143.435 406.163 143.373 403.088 144.363 403.63C145.292 404.113 145.354 406.103 145.354 406.103Z" fill="#68413C"/>
<path opacity="0.5" d="M157.858 403.088C158.787 404.294 160.768 404.595 160.149 403.148C159.53 401.701 156.496 400.977 155.877 401.52C155.258 402.123 156.868 401.821 157.858 403.088Z" fill="#FFE8CA"/>
<path opacity="0.5" d="M143.249 402.725C142.506 403.509 141.082 403.389 141.33 402.544C141.639 401.519 144.858 400.675 145.911 401.278C147.149 401.941 144.363 401.58 143.249 402.725Z" fill="#FFE8CA"/>
<path d="M145.168 419.67C145.23 419.911 145.292 420.153 145.354 420.394C146.282 423.53 148.077 427.63 151.173 426.906C153.711 426.364 155.506 422.987 156.001 420.213C156.063 420.032 156.063 419.791 156.063 419.61C155.692 419.791 155.32 419.911 154.949 420.032C154.763 420.092 154.515 420.153 154.33 420.213C154.268 420.213 154.206 420.213 154.206 420.273C154.144 420.273 154.082 420.334 154.082 420.334C152.039 420.876 150.244 420.334 148.882 419.429C148.573 419.248 148.325 419.007 148.077 418.826C148.015 418.766 147.892 418.705 147.83 418.645C147.706 418.525 147.582 418.404 147.52 418.283C147.458 418.223 147.396 418.163 147.335 418.102C147.273 418.042 147.211 417.982 147.211 417.922C147.149 417.922 147.149 417.922 147.087 417.922C147.025 417.922 146.963 417.922 146.901 417.861C146.654 418.283 146.282 418.766 145.849 419.128C145.725 419.248 145.539 419.429 145.354 419.55C145.23 419.61 145.168 419.67 145.168 419.67Z" fill="#EFCEA8"/>
<path d="M145.292 419.61C145.415 419.851 145.539 420.153 145.663 420.394C146.963 423.349 148.882 426.605 150.739 426.002C152.72 425.399 154.082 423.107 154.763 420.816C154.825 420.575 154.887 420.273 154.949 420.032C154.763 420.092 154.515 420.153 154.33 420.213C154.268 420.213 154.206 420.213 154.206 420.273C154.144 420.273 154.082 420.334 154.082 420.334C152.039 420.876 150.244 420.334 148.882 419.429C148.573 419.248 148.325 419.007 148.077 418.826C148.015 418.766 147.892 418.705 147.83 418.645C147.706 418.525 147.582 418.404 147.52 418.283C147.458 418.223 147.396 418.163 147.335 418.102C147.273 418.042 147.211 417.982 147.211 417.922C147.149 417.922 147.149 417.922 147.087 417.922C147.025 417.922 146.963 417.922 146.901 417.861C146.654 418.283 146.282 418.766 145.849 419.128C145.601 419.308 145.415 419.489 145.292 419.61Z" fill="#68413C"/>
<path d="M148.015 422.746C148.077 422.987 148.201 423.228 148.325 423.53C148.325 423.59 148.387 423.65 148.387 423.711C148.449 423.771 148.449 423.831 148.511 423.892C148.573 424.012 148.634 424.133 148.696 424.253C148.758 424.374 148.82 424.434 148.882 424.555L148.944 424.615C149.006 424.676 149.068 424.736 149.068 424.796C149.192 424.977 149.377 425.098 149.563 425.218C149.625 425.218 149.625 425.279 149.687 425.279C149.749 425.279 149.749 425.339 149.811 425.339C149.873 425.339 149.873 425.399 149.934 425.399H149.996C150.058 425.399 150.12 425.399 150.12 425.459C150.182 425.459 150.244 425.459 150.306 425.459C150.43 425.459 150.615 425.459 150.739 425.399C150.863 425.339 150.987 425.279 151.173 425.218C151.234 425.218 151.296 425.158 151.358 425.098C151.544 424.977 151.73 424.856 151.915 424.736C151.977 424.676 152.039 424.615 152.101 424.615C152.225 424.495 152.411 424.374 152.534 424.193C152.596 424.133 152.658 424.073 152.72 424.012C152.782 423.892 152.906 423.831 152.968 423.711C153.153 423.47 153.339 423.168 153.463 422.927C153.711 422.505 153.896 422.083 154.02 421.66C154.206 421.178 154.206 420.696 154.082 420.213C152.039 420.756 150.244 420.213 148.882 419.309C148.696 419.49 148.511 419.731 148.325 419.972C147.83 420.877 147.706 421.841 148.015 422.746Z" fill="#CE413E"/>
<path d="M151.42 422.746C152.163 422.746 152.844 422.867 153.463 423.047C152.844 424.193 151.915 425.158 150.801 425.46C149.625 425.821 148.882 424.796 148.325 423.47C149.068 423.047 150.182 422.746 151.42 422.746Z" fill="#E25E54"/>
<path d="M143.93 420.273C144.363 420.394 144.796 420.454 145.292 420.394C145.354 420.394 145.477 420.394 145.539 420.394C145.725 420.394 145.973 420.334 146.22 420.273L145.663 419.188C145.539 419.309 145.354 419.489 145.168 419.61C145.106 419.67 145.106 419.67 145.044 419.67C144.796 419.972 144.363 420.153 143.93 420.273Z" fill="#68413C"/>
<path d="M154.206 420.333L154.33 420.997C154.453 420.937 154.577 420.937 154.701 420.876C155.196 420.695 155.568 420.514 155.939 420.273C156.558 419.851 156.992 419.429 157.301 419.067C156.868 419.248 156.496 419.489 156.063 419.67C155.692 419.851 155.32 419.972 154.949 420.092C154.763 420.153 154.515 420.213 154.33 420.273C154.268 420.273 154.268 420.273 154.206 420.333Z" fill="#68413C"/>
<path d="M431 898L3.99997 898L4 578.945C4 556.547 18.8961 536.881 40.4575 530.814L163.33 496.242C198.755 486.274 236.245 486.274 271.67 496.242L394.543 530.814C416.104 536.881 431 556.547 431 578.945L431 898Z" fill="#FAFAFC"/>
<rect x="149" y="883" width="135" height="5" rx="2.5" fill="#EEEEEE"/>
</g>
<defs>
<filter id="filter0_d_1_8" x="0" y="0" width="433" height="905" filterUnits="userSpaceOnUse" color-interpolation-filters="sRGB">
<feFlood flood-opacity="0" result="BackgroundImageFix"/>
<feColorMatrix in="SourceAlpha" type="matrix" values="0 0 0 0 0 0 0 0 0 0 0 0 0 0 0 0 0 0 127 0" result="hardAlpha"/>
<feOffset dy="4"/>
<feGaussianBlur stdDeviation="2"/>
<feComposite in2="hardAlpha" operator="out"/>
<feColorMatrix type="matrix" values="0 0 0 0 0 0 0 0 0 0 0 0 0 0 0 0 0 0 0.25 0"/>
<feBlend mode="normal" in2="BackgroundImageFix" result="effect1_dropShadow_1_8"/>
<feBlend mode="normal" in="SourceGraphic" in2="effect1_dropShadow_1_8" result="shape"/>
</filter>
<clipPath id="clip0_1_8">
<rect width="425" height="897" fill="white" transform="translate(4)"/>
</clipPath>
</defs>
</svg>
