<svg width="375" height="667" viewBox="0 0 375 667" fill="none" xmlns="http://www.w3.org/2000/svg">
<g clip-path="url(#clip0_0_27)">
<rect width="375" height="667" fill="#4686FF"/>
<path d="M267.636 278.793C292.899 282.424 350.235 296.638 375 297.687V416H-0.999924L-0.999993 309.043C35.5983 301.825 45.2516 290.119 100.475 281.043C135.348 275.311 161.776 264.164 194.248 263.048C222.939 262.063 251.486 276.472 267.636 278.793Z" fill="#3F7EF5"/>
<path d="M-0.933511 316.49C27.6357 309.554 112.312 289.929 159.625 288.966C172.448 288.748 180.201 290.277 187.656 290.714C193.471 291.041 198.839 290.823 206.145 288.529C209.575 287.437 213.153 287 216.731 287C230.3 287 245.061 292.789 261.313 291.806C261.612 291.806 261.761 291.806 261.91 291.806C274.136 291.151 284.872 291.369 294.563 292.352C316.78 294.646 334.523 300.762 355.099 308.189C362.001 310.683 367.224 313.835 374 315.891C374 360.953 374 393.619 374 451L-1 433.957C-1.00002 415.851 -0.933497 334.638 -0.933511 316.49Z" fill="#3575EF"/>
<path d="M86.9235 89.7242C86.9235 89.4013 87.1388 89.186 87.4617 89.186H101.4C109.849 89.186 114.961 94.1908 114.961 101.51C114.961 109.689 108.611 113.941 100.646 113.941H94.7267V119.699C94.7267 122.39 92.5741 124.542 89.8833 124.542H87.4617C87.1388 124.542 86.9235 124.327 86.9235 124.004V89.7242ZM100.862 107.052C104.736 107.052 107.05 104.738 107.05 101.563C107.05 98.0654 104.629 96.1819 100.754 96.1819H94.7267V106.999H100.862V107.052Z" fill="white"/>
<path d="M153.816 102.462H145.853C145.601 102.462 145.434 102.293 145.434 102.041V100.652C145.434 98.5474 147.11 96.8638 149.206 96.8638H164.504C166.6 96.8638 168.276 98.5474 168.276 100.652V102.041C168.276 102.293 168.109 102.462 167.857 102.462H159.894V124.095C159.894 124.347 159.726 124.516 159.475 124.516H154.235C153.984 124.516 153.816 124.347 153.816 124.095V102.462Z" fill="white"/>
<path d="M141.403 119.095H126.692V113.337H136.146C136.188 113.337 136.231 113.337 136.273 113.337C137.079 113.211 137.842 112.833 138.435 112.287C139.198 111.614 139.665 110.648 139.792 109.597C139.834 109.471 139.749 109.303 139.665 109.177C139.58 109.051 139.41 109.009 139.283 109.009L136.739 108.925C136.4 108.336 135.722 107.958 135.044 107.958C134.959 107.958 134.916 107.958 134.832 107.958L134.789 107.916L134.196 106.656C134.111 106.445 133.899 106.361 133.687 106.361C133.475 106.361 133.305 106.487 133.221 106.698L132.881 107.538L132.118 106.361C131.991 106.193 131.737 106.109 131.525 106.151C131.313 106.235 131.143 106.403 131.143 106.656V107.874H126.692V102.285H141.233C141.488 102.285 141.657 102.117 141.657 101.865V101.066C141.657 98.7549 139.749 96.8638 137.418 96.8638H121.011C120.799 96.8638 120.587 97.0319 120.587 97.2841V124.096C120.587 124.348 120.799 124.516 121.011 124.516H138.011C140.089 124.516 141.827 122.835 141.827 120.734V119.515C141.827 119.305 141.615 119.095 141.403 119.095ZM135.34 108.421C135.552 108.421 135.764 108.589 135.764 108.841C135.764 109.051 135.595 109.261 135.34 109.261C135.128 109.261 134.916 109.093 134.916 108.841C134.959 108.631 135.128 108.421 135.34 108.421Z" fill="white"/>
<path d="M171.883 124.513L186.938 89.186H194.063L209.118 124.513H201.038L197.827 116.646H182.973L179.762 124.513H171.883ZM185.733 109.831H195.067L190.4 98.4563L185.733 109.831Z" fill="#8FB6FF"/>
<path d="M213.736 132.531V97.6546H221.364V101.513C223.505 98.6067 226.298 97.1535 229.744 97.1535C233.089 97.1535 235.966 98.4062 238.375 100.912C240.784 103.417 241.988 106.825 241.988 111.134C241.988 115.41 240.784 118.801 238.375 121.306C236 123.778 233.123 125.014 229.744 125.014C226.398 125.014 223.605 123.678 221.364 121.006V132.531H213.736ZM223.12 116.496C224.391 117.865 225.947 118.55 227.787 118.55C229.627 118.55 231.182 117.865 232.454 116.496C233.725 115.093 234.361 113.272 234.361 111.034C234.361 108.862 233.725 107.092 232.454 105.722C231.182 104.319 229.627 103.618 227.787 103.618C225.947 103.618 224.391 104.319 223.12 105.722C221.882 107.092 221.263 108.896 221.263 111.134C221.263 113.305 221.882 115.093 223.12 116.496Z" fill="#8FB6FF"/>
<path d="M247.598 132.531V97.6546H255.226V101.513C257.367 98.6067 260.16 97.1535 263.606 97.1535C266.952 97.1535 269.829 98.4062 272.237 100.912C274.646 103.417 275.85 106.825 275.85 111.134C275.85 115.41 274.646 118.801 272.237 121.306C269.862 123.778 266.985 125.014 263.606 125.014C260.261 125.014 257.467 123.678 255.226 121.006V132.531H247.598ZM256.982 116.496C258.254 117.865 259.809 118.55 261.649 118.55C263.489 118.55 265.045 117.865 266.316 116.496C267.587 115.093 268.223 113.272 268.223 111.034C268.223 108.862 267.587 107.092 266.316 105.722C265.045 104.319 263.489 103.618 261.649 103.618C259.809 103.618 258.254 104.319 256.982 105.722C255.745 107.092 255.126 108.896 255.126 111.134C255.126 113.305 255.745 115.093 256.982 116.496Z" fill="#8FB6FF"/>
<path d="M59.0629 64.2175H56.2691C56.2691 64.1699 56.2691 64.0746 56.2691 64.027C56.2691 57.5001 50.9184 52.2119 44.2892 52.2119C37.66 52.2119 32.3093 57.5001 32.3093 64.027C32.3093 64.0746 32.3093 64.1699 32.3093 64.2175H32.1672C27.8109 64.2175 24.2122 67.5524 24.2122 71.6019C24.2122 75.6514 27.7635 78.9863 32.1672 78.9863H58.9682C63.3245 78.9863 66.9232 75.6514 66.9232 71.6019C66.9706 67.5524 63.4192 64.2175 59.0629 64.2175Z" fill="#3575EF"/>
<path d="M54.6051 153.534H49.9873C49.9873 153.455 49.9873 153.299 49.9873 153.22C49.9873 142.498 41.143 133.81 30.1855 133.81C19.2281 133.81 10.3838 142.498 10.3838 153.22C10.3838 153.299 10.3838 153.455 10.3838 153.534H10.149C2.94836 153.534 -3 159.012 -3 165.665C-3 172.318 2.87009 177.797 10.149 177.797H54.4486C61.6492 177.797 67.5976 172.318 67.5976 165.665C67.6758 159.012 61.8057 153.534 54.6051 153.534Z" fill="#F9F9F9"/>
<path d="M355.375 54.7235H350.757C350.757 54.6452 350.757 54.4887 350.757 54.4104C350.757 43.6877 341.913 35 330.955 35C319.998 35 311.154 43.6877 311.154 54.4104C311.154 54.4887 311.154 54.6452 311.154 54.7235H310.919C303.718 54.7235 297.77 60.2022 297.77 66.855C297.77 73.5078 303.64 78.9865 310.919 78.9865H355.218C362.419 78.9865 368.367 73.5078 368.367 66.855C368.446 60.2022 362.576 54.7235 355.375 54.7235Z" fill="#3575EF"/>
<path d="M149.599 54.775H147.288C147.288 54.6979 147.288 54.6979 147.288 54.6209C147.288 49.2284 142.82 44.8374 137.35 44.8374C131.881 44.8374 127.413 49.2284 127.413 54.6209C127.413 54.6979 127.413 54.6979 127.413 54.775H127.336C123.715 54.775 120.71 57.5483 120.71 60.8608C120.71 64.2504 123.715 66.9466 127.336 66.9466H149.676C153.296 66.9466 156.301 64.1733 156.301 60.8608C156.224 57.5483 153.219 54.775 149.599 54.775Z" fill="#F9F9F9"/>
<path d="M372.451 131.158H369.062C369.062 131.081 369.062 131.004 369.062 130.927C369.062 122.992 362.514 116.598 354.502 116.598C346.49 116.598 339.942 122.992 339.942 130.927C339.942 131.004 339.942 131.081 339.942 131.158H339.788C334.473 131.158 330.082 135.164 330.082 140.094C330.082 145.024 334.396 149.03 339.788 149.03H372.451C377.767 149.03 382.158 145.024 382.158 140.094C382.158 135.164 377.844 131.158 372.451 131.158Z" fill="#F9F9F9"/>
<path d="M152.93 241.395H150.124C149.741 241.395 149.422 241.076 149.422 240.694C149.422 240.311 149.741 239.992 150.124 239.992H152.93C156.119 239.992 158.671 237.313 158.671 234.06V232.848C158.671 232.466 158.99 232.147 159.372 232.147C159.755 232.147 160.074 232.466 160.074 232.848V234.06C160.138 238.079 156.885 241.395 152.93 241.395Z" fill="#659BFF"/>
<path fill-rule="evenodd" clip-rule="evenodd" d="M135.008 191.485C136.201 183.019 143.349 176.522 151.973 176.522C161.397 176.522 169.137 184.412 169.137 194.005V199.171C169.137 199.204 169.151 199.28 169.251 199.411C169.352 199.542 169.507 199.685 169.709 199.836C169.907 199.985 170.126 200.123 170.34 200.256C170.367 200.273 170.395 200.29 170.423 200.308C170.595 200.414 170.778 200.527 170.913 200.627C171.864 201.307 172.612 202.058 173.35 203.064L173.351 203.065C175.134 205.509 176.376 208.527 177.093 211.652C177.783 214.478 178.047 217.353 178.18 220.199C182.366 223.298 185.083 228.702 185.019 234.829V236.612C185.019 245.977 178.582 253.839 170.47 253.839H129.522C121.41 253.839 114.973 245.977 114.973 236.612V234.826C114.973 228.71 117.743 223.251 121.864 220.207C121.868 219.798 121.881 219.392 121.894 218.992L121.894 218.987C121.91 218.475 121.925 217.975 121.925 217.477V217.466L121.926 217.456C121.957 216.48 121.957 215.466 121.956 214.425L121.956 214.322C121.955 213.317 121.954 212.289 121.981 211.265C122.038 209.151 122.215 207.015 122.779 205.055C123.641 201.94 125.362 199.228 127.479 197.178L127.482 197.174L127.486 197.171C128.602 196.12 129.852 195.198 131.172 194.47C131.279 194.404 131.419 194.345 131.528 194.3C131.667 194.243 131.84 194.176 132.026 194.105C132.052 194.095 132.078 194.085 132.105 194.075C132.466 193.936 132.884 193.777 133.286 193.604L133.296 193.6L133.307 193.596C134.238 193.233 134.851 192.47 135.008 191.485ZM151.973 177.81C144.016 177.81 137.388 183.811 136.283 191.671L136.282 191.676L136.281 191.681C136.055 193.115 135.141 194.26 133.784 194.792C133.36 194.974 132.924 195.141 132.569 195.276C132.541 195.287 132.514 195.298 132.487 195.308C132.298 195.38 132.14 195.441 132.019 195.491C131.929 195.528 131.882 195.55 131.863 195.559C131.852 195.564 131.851 195.565 131.856 195.561L131.834 195.576L131.809 195.59C130.586 196.263 129.418 197.122 128.372 198.106C126.409 200.009 124.815 202.525 124.019 205.402L124.018 205.409C123.498 207.211 123.325 209.22 123.269 211.299C123.242 212.305 123.243 213.318 123.244 214.328L123.244 214.423C123.245 215.458 123.246 216.489 123.214 217.487C123.213 218.004 123.197 218.519 123.182 219.023L123.181 219.028C123.165 219.54 123.15 220.04 123.15 220.538V220.873L122.876 221.065C118.982 223.804 116.261 228.956 116.261 234.826V236.612C116.261 245.488 122.325 252.551 129.522 252.551H170.47C177.667 252.551 183.731 245.488 183.731 236.612V234.826L183.731 234.819C183.793 228.953 181.138 223.866 177.178 221.064L176.921 220.882L176.907 220.566C176.78 217.648 176.527 214.762 175.84 211.953L175.839 211.948L175.838 211.944C175.151 208.947 173.97 206.099 172.31 203.824C171.646 202.919 170.993 202.267 170.16 201.672L170.154 201.668L170.148 201.664C170.063 201.6 169.935 201.521 169.751 201.407C169.722 201.389 169.692 201.37 169.66 201.351C169.444 201.216 169.184 201.052 168.936 200.866C168.691 200.683 168.432 200.459 168.229 200.195C168.027 199.931 167.849 199.585 167.849 199.171V194.005C167.849 185.101 160.664 177.81 151.973 177.81Z" fill="#659BFF"/>
<path d="M150.124 279.474C149.741 279.474 149.422 279.155 149.422 278.772V199.873C149.422 199.49 149.741 199.171 150.124 199.171C150.506 199.171 150.825 199.49 150.825 199.873V278.772C150.825 279.155 150.506 279.474 150.124 279.474Z" fill="#659BFF"/>
<path d="M150.124 216.01H145.404C142.278 216.01 139.663 212.821 139.663 208.93V208.483C139.663 208.101 139.982 207.782 140.365 207.782C140.748 207.782 141.067 208.101 141.067 208.483V208.93C141.067 211.991 142.98 214.543 145.34 214.543H150.06C150.443 214.543 150.762 214.862 150.762 215.244C150.762 215.627 150.506 216.01 150.124 216.01Z" fill="#659BFF"/>
<path d="M153.377 223.281H150.06C149.677 223.281 149.358 222.962 149.358 222.579C149.358 222.197 149.677 221.878 150.06 221.878H153.377C157.14 221.878 160.201 219.199 160.201 215.946V214.734C160.201 214.351 160.52 214.032 160.903 214.032C161.286 214.032 161.605 214.351 161.605 214.734V215.946C161.732 219.964 157.969 223.281 153.377 223.281Z" fill="#659BFF"/>
<path d="M150.124 232.785H146.679C141.768 232.785 137.941 230.425 137.941 227.427V226.598C137.941 226.215 138.26 225.896 138.643 225.896C139.025 225.896 139.344 226.215 139.344 226.598V227.427C139.344 229.532 142.661 231.318 146.616 231.318H150.06C150.443 231.318 150.762 231.637 150.762 232.019C150.762 232.402 150.506 232.785 150.124 232.785Z" fill="#659BFF"/>
<path d="M88.1474 264.003H85.7474C85.4201 264.003 85.1473 263.729 85.1473 263.401C85.1473 263.073 85.4201 262.8 85.7474 262.8H88.1474C90.8747 262.8 93.0566 260.504 93.0566 257.715V256.677C93.0566 256.349 93.3293 256.075 93.6566 256.075C93.9839 256.075 94.2566 256.349 94.2566 256.677V257.715C94.3111 261.16 91.5293 264.003 88.1474 264.003Z" fill="#659BFF"/>
<path fill-rule="evenodd" clip-rule="evenodd" d="M72.8205 221.222C73.841 213.966 79.9538 208.396 87.3292 208.396C95.3885 208.396 102.008 215.159 102.008 223.381V227.81C102.008 227.838 102.019 227.903 102.105 228.015C102.191 228.128 102.324 228.25 102.496 228.38C102.666 228.507 102.853 228.626 103.036 228.74C103.059 228.755 103.083 228.769 103.107 228.784C103.254 228.875 103.411 228.972 103.526 229.058C104.339 229.641 104.979 230.284 105.61 231.146L105.611 231.147C107.136 233.242 108.198 235.829 108.811 238.508C109.402 240.93 109.627 243.394 109.741 245.834C113.32 248.49 115.644 253.122 115.59 258.374V259.902C115.59 267.93 110.085 274.669 103.148 274.669H68.1288C61.192 274.669 55.6869 267.93 55.6869 259.902V258.371C55.6869 253.13 58.0561 248.45 61.5796 245.841C61.5837 245.491 61.5946 245.142 61.6053 244.8L61.6054 244.796C61.6191 244.357 61.6324 243.928 61.6324 243.501V243.492L61.6327 243.483C61.6596 242.646 61.6597 241.777 61.6588 240.885L61.6588 240.797C61.6579 239.935 61.657 239.054 61.6803 238.176C61.7284 236.365 61.8798 234.533 62.3622 232.854C63.0996 230.184 64.5718 227.859 66.3819 226.101L66.3847 226.098L66.3876 226.096C67.3425 225.195 68.4112 224.404 69.5398 223.78C69.6317 223.724 69.7517 223.673 69.8442 223.635C69.9634 223.586 70.1114 223.528 70.2705 223.467C70.2926 223.459 70.3151 223.45 70.3378 223.441C70.6466 223.323 71.0037 223.186 71.3483 223.038L71.3569 223.034L71.3656 223.031C72.1623 222.72 72.6862 222.066 72.8205 221.222ZM87.3292 209.5C80.5241 209.5 74.856 214.644 73.9108 221.381L73.9101 221.385L73.9094 221.39C73.7159 222.619 72.9346 223.601 71.7739 224.057C71.4111 224.212 71.0381 224.355 70.7345 224.472C70.7107 224.481 70.6874 224.49 70.6645 224.498C70.5032 224.56 70.3682 224.613 70.2641 224.656C70.1875 224.687 70.1475 224.706 70.1314 224.714C70.1219 224.718 70.1207 224.719 70.1253 224.716L70.1058 224.729L70.0852 224.74C69.0385 225.317 68.0405 226.053 67.1456 226.897C65.4667 228.528 64.104 230.684 63.4233 233.151L63.4217 233.157C62.9775 234.702 62.829 236.423 62.7817 238.205C62.7588 239.068 62.7596 239.936 62.7605 240.801L62.7605 240.884C62.7614 241.77 62.7614 242.654 62.7341 243.51C62.7339 243.953 62.7202 244.394 62.7067 244.826L62.7066 244.83C62.6929 245.269 62.6796 245.698 62.6796 246.125V246.412L62.4456 246.577C59.1149 248.924 56.7886 253.34 56.7886 258.371V259.902C56.7886 267.511 61.9746 273.565 68.1288 273.565H103.148C109.302 273.565 114.488 267.511 114.488 259.902V258.371L114.488 258.366C114.541 253.338 112.27 248.977 108.884 246.576L108.664 246.419L108.652 246.149C108.543 243.647 108.327 241.174 107.74 238.766L107.739 238.762L107.738 238.758C107.151 236.19 106.14 233.748 104.721 231.799C104.153 231.022 103.594 230.464 102.882 229.954L102.877 229.95L102.872 229.946C102.799 229.892 102.69 229.824 102.533 229.726C102.508 229.711 102.482 229.695 102.455 229.678C102.27 229.563 102.047 229.422 101.835 229.263C101.626 229.105 101.404 228.914 101.231 228.688C101.058 228.462 100.906 228.165 100.906 227.81V223.381C100.906 215.749 94.761 209.5 87.3292 209.5Z" fill="#659BFF"/>
<path d="M85.7473 296.641C85.4201 296.641 85.1473 296.368 85.1473 296.04V228.411C85.1473 228.083 85.4201 227.81 85.7473 227.81C86.0746 227.81 86.3473 228.083 86.3473 228.411V296.04C86.3473 296.368 86.0746 296.641 85.7473 296.641Z" fill="#659BFF"/>
<path d="M85.7473 242.243H81.7109C79.0381 242.243 76.8017 239.51 76.8017 236.175V235.792C76.8017 235.464 77.0744 235.191 77.4017 235.191C77.729 235.191 78.0017 235.464 78.0017 235.792V236.175C78.0017 238.799 79.6381 240.986 81.6564 240.986H85.6928C86.0201 240.986 86.2928 241.259 86.2928 241.587C86.2928 241.915 86.0746 242.243 85.7473 242.243Z" fill="#659BFF"/>
<path d="M88.5292 248.476H85.6928C85.3656 248.476 85.0928 248.202 85.0928 247.874C85.0928 247.546 85.3656 247.273 85.6928 247.273H88.5292C91.7475 247.273 94.3657 244.977 94.3657 242.188V241.15C94.3657 240.822 94.6385 240.548 94.9657 240.548C95.293 240.548 95.5657 240.822 95.5657 241.15V242.188C95.6748 245.633 92.4566 248.476 88.5292 248.476Z" fill="#659BFF"/>
<path d="M85.7474 256.622H82.8018C78.6018 256.622 75.329 254.599 75.329 252.03V251.319C75.329 250.991 75.6017 250.717 75.929 250.717C76.2563 250.717 76.529 250.991 76.529 251.319V252.03C76.529 253.834 79.3654 255.365 82.7473 255.365H85.6928C86.0201 255.365 86.2928 255.638 86.2928 255.966C86.2928 256.294 86.0746 256.622 85.7474 256.622Z" fill="#659BFF"/>
<path fill-rule="evenodd" clip-rule="evenodd" d="M256.768 204.235C257.961 195.769 265.109 189.272 273.733 189.272C283.157 189.272 290.897 197.161 290.897 206.754V211.921C290.897 211.953 290.911 212.03 291.011 212.16C291.112 212.292 291.267 212.434 291.469 212.585C291.667 212.734 291.885 212.873 292.099 213.006C292.127 213.023 292.155 213.04 292.183 213.058C292.355 213.164 292.538 213.277 292.673 213.377C293.624 214.057 294.372 214.807 295.11 215.813L295.11 215.814C296.894 218.259 298.136 221.276 298.853 224.401C299.543 227.228 299.807 230.102 299.94 232.949C304.125 236.047 306.842 241.452 306.779 247.579V249.361C306.779 258.727 300.342 266.589 292.23 266.589H251.282C243.17 266.589 236.733 258.727 236.733 249.361V247.575C236.733 241.46 239.503 236.001 243.623 232.957C243.628 232.548 243.641 232.141 243.653 231.742L243.654 231.737C243.67 231.225 243.685 230.725 243.685 230.226V230.216L243.685 230.206C243.717 229.229 243.717 228.215 243.716 227.174L243.716 227.072C243.715 226.067 243.714 225.039 243.741 224.014C243.797 221.901 243.974 219.765 244.538 217.805C245.401 214.69 247.122 211.978 249.239 209.927L249.242 209.924L249.246 209.921C250.362 208.87 251.612 207.948 252.931 207.22C253.039 207.154 253.179 207.094 253.287 207.05C253.427 206.992 253.6 206.926 253.786 206.854C253.812 206.845 253.838 206.834 253.865 206.824C254.226 206.686 254.643 206.526 255.046 206.354L255.056 206.349L255.066 206.345C255.998 205.983 256.611 205.219 256.768 204.235ZM273.733 190.56C265.776 190.56 259.148 196.561 258.043 204.42L258.042 204.426L258.041 204.431C257.815 205.864 256.901 207.01 255.544 207.542C255.12 207.723 254.683 207.89 254.328 208.026C254.301 208.037 254.273 208.047 254.247 208.057C254.058 208.13 253.9 208.191 253.778 208.241C253.689 208.278 253.642 208.3 253.623 208.309C253.612 208.314 253.611 208.314 253.616 208.311L253.593 208.326L253.569 208.339C252.345 209.012 251.178 209.872 250.132 210.856C248.169 212.759 246.575 215.274 245.779 218.152L245.777 218.158C245.258 219.961 245.084 221.969 245.029 224.049C245.002 225.055 245.003 226.068 245.004 227.077L245.004 227.173C245.005 228.208 245.005 229.239 244.973 230.237C244.973 230.754 244.957 231.269 244.941 231.772L244.941 231.777C244.925 232.289 244.91 232.789 244.91 233.288V233.623L244.636 233.815C240.741 236.553 238.021 241.705 238.021 247.575V249.361C238.021 258.238 244.085 265.301 251.282 265.301H292.23C299.427 265.301 305.491 258.238 305.491 249.361V247.575L305.491 247.569C305.553 241.703 302.898 236.616 298.938 233.814L298.68 233.631L298.667 233.316C298.54 230.397 298.287 227.512 297.6 224.703L297.599 224.698L297.598 224.694C296.911 221.697 295.73 218.849 294.07 216.574C293.406 215.669 292.752 215.017 291.92 214.422L291.913 214.418L291.907 214.413C291.823 214.35 291.695 214.271 291.511 214.157C291.482 214.139 291.452 214.12 291.42 214.101C291.204 213.966 290.943 213.802 290.696 213.616C290.451 213.432 290.191 213.208 289.989 212.945C289.787 212.681 289.609 212.335 289.609 211.921V206.754C289.609 197.85 282.423 190.56 273.733 190.56Z" fill="#659BFF"/>
<path d="M271.883 292.223C271.501 292.223 271.182 291.904 271.182 291.522V212.622C271.182 212.24 271.501 211.921 271.883 211.921C272.266 211.921 272.585 212.24 272.585 212.622V291.522C272.585 291.904 272.266 292.223 271.883 292.223Z" fill="#659BFF"/>
<path d="M271.883 228.759H267.163C264.038 228.759 261.423 225.57 261.423 221.68V221.233C261.423 220.85 261.742 220.531 262.125 220.531C262.507 220.531 262.826 220.85 262.826 221.233V221.68C262.826 224.741 264.74 227.292 267.1 227.292H271.82C272.202 227.292 272.521 227.611 272.521 227.994C272.521 228.377 272.266 228.759 271.883 228.759Z" fill="#659BFF"/>
<path d="M275.136 236.031H271.82C271.437 236.031 271.118 235.712 271.118 235.329C271.118 234.946 271.437 234.627 271.82 234.627H275.136C278.9 234.627 281.961 231.949 281.961 228.696V227.484C281.961 227.101 282.28 226.782 282.663 226.782C283.045 226.782 283.364 227.101 283.364 227.484V228.696C283.492 232.714 279.729 236.031 275.136 236.031Z" fill="#659BFF"/>
<path d="M274.69 254.145H271.883C271.501 254.145 271.182 253.826 271.182 253.444C271.182 253.061 271.501 252.742 271.883 252.742H274.69C277.879 252.742 280.43 250.063 280.43 246.81V245.598C280.43 245.216 280.749 244.897 281.132 244.897C281.515 244.897 281.834 245.216 281.834 245.598V246.81C281.897 250.828 278.644 254.145 274.69 254.145Z" fill="#659BFF"/>
<path d="M271.883 245.534H268.439C263.528 245.534 259.701 243.175 259.701 240.177V239.348C259.701 238.965 260.02 238.646 260.403 238.646C260.785 238.646 261.104 238.965 261.104 239.348V240.177C261.104 242.282 264.421 244.067 268.375 244.067H271.82C272.202 244.067 272.521 244.386 272.521 244.769C272.521 245.152 272.266 245.534 271.883 245.534Z" fill="#659BFF"/>
<path d="M204.94 182.176C203.056 175.295 205.67 172.335 213.09 171.758C220.509 171.181 225.083 173.257 224.468 177.37C223.853 181.484 220.163 184.098 220.163 184.098L204.94 182.176Z" fill="#77A9FF"/>
<path d="M207.054 181.215C205.593 175.871 207.631 173.565 213.397 173.142C219.163 172.681 222.7 174.334 222.239 177.524C221.777 180.715 218.894 182.752 218.894 182.752L207.054 181.215Z" fill="#2970D6"/>
<path d="M218.317 177.025V220.348H205.824L206.016 215.774L206.055 214.697L206.324 209.162L206.362 208.085L206.593 202.511L206.631 201.473L206.9 195.899L206.939 194.823L207.169 189.287L207.208 188.211L207.477 182.676L207.515 181.599L207.631 178.947L209.207 178.255L210.668 177.601L216.395 176.448L218.317 177.025Z" fill="white"/>
<path d="M218.318 181.599V182.676H207.477L207.515 181.599H218.318Z" fill="#CFD7FF"/>
<path d="M218.318 188.211V189.287H207.169L207.208 188.211H218.318Z" fill="#CFD7FF"/>
<path d="M218.318 194.823V195.899H206.9L206.939 194.823H218.318Z" fill="#CFD7FF"/>
<path d="M218.317 201.473V202.511H206.593L206.631 201.473H218.317Z" fill="#CFD7FF"/>
<path d="M218.317 208.085V209.162H206.324L206.362 208.085H218.317Z" fill="#CFD7FF"/>
<path d="M218.317 214.698V215.774H206.016L206.055 214.698H218.317Z" fill="#CFD7FF"/>
<path d="M196.636 208.277C197.328 210.353 200.25 216.388 200.365 217.849C200.481 219.502 196.406 223.884 195.06 223.077C194.138 222.539 191.101 217.042 189.448 213.005C188.718 211.199 188.256 209.661 188.41 209.008C188.487 208.662 188.756 207.739 189.179 206.432C191.178 200.166 196.483 185.174 200.365 182.175L202.749 195.861C202.749 195.861 201.442 198.09 200.058 200.627C199.251 202.05 198.443 203.587 197.751 204.856C197.636 205.125 197.482 205.356 197.367 205.586C196.829 206.663 196.483 207.431 196.483 207.662C196.483 207.777 196.56 207.97 196.636 208.277Z" fill="#77A9FF"/>
<path d="M201.326 232.88C201.326 232.88 199.327 233.38 198.674 232.534C198.059 231.688 197.482 227.844 197.482 227.844C197.482 227.844 196.867 227.536 196.367 225.307C195.868 223.077 195.637 219.848 197.674 218.618C198.943 217.042 200.98 217.888 200.98 217.888L201.057 220.732L201.326 232.88Z" fill="#FFC299"/>
<path d="M201.326 232.88C201.326 232.88 199.327 233.38 198.674 232.534C198.059 231.688 197.482 227.844 197.482 227.844C198.905 228.075 198.751 226.999 198.674 224.577C199.097 225.23 199.789 226.691 199.481 224.577C199.212 222.462 199.02 220.194 200.365 220.348C200.596 220.387 200.788 220.502 201.019 220.733L201.326 232.88Z" fill="#EAA781"/>
<path d="M200.365 182.176L207.631 178.947L205.824 220.348H199.712L200.365 182.176Z" fill="#77A9FF"/>
<path d="M226.813 179.677V220.348H218.318V177.024L218.856 177.216L226.813 179.677Z" fill="#77A9FF"/>
<path d="M226.813 194.823V220.31H218.318V206.202C221.085 200.974 223.469 195.323 224.007 190.671L226.813 194.823Z" fill="#2970D6"/>
<path d="M218.318 206.24V220.348H209.668C211.667 217.427 215.242 212.083 218.318 206.24Z" fill="#CCD6FF"/>
<path d="M200.058 191.209V200.628C199.251 202.05 198.443 203.588 197.751 204.856C197.405 199.859 200.058 191.209 200.058 191.209Z" fill="#2970D6"/>
<path d="M196.483 207.662C196.483 207.777 196.521 207.97 196.636 208.239C196.521 208.085 194.676 205.625 194.638 204.587C194.599 203.856 196.29 204.856 197.367 205.586C196.829 206.663 196.483 207.431 196.483 207.662Z" fill="#2970D6"/>
<path d="M189.486 213.006C188.756 211.199 188.295 209.661 188.448 209.008C188.525 208.662 188.794 207.739 189.217 206.432C189.755 207.124 190.178 208.008 190.332 209.046C190.563 210.622 190.217 212.083 189.486 213.006Z" fill="#2970D6"/>
<path d="M205.209 181.291V193.362" stroke="white" stroke-width="1.20843" stroke-miterlimit="10" stroke-linecap="round" stroke-linejoin="round"/>
<path d="M220.432 181.291V193.362" stroke="white" stroke-width="1.20843" stroke-miterlimit="10" stroke-linecap="round" stroke-linejoin="round"/>
<path d="M235.501 288.121H226.659C226.659 288.121 220.47 267.401 219.317 262.788C218.125 258.175 215.742 250.909 215.742 250.909L215.435 257.598L215.396 258.329C216.472 263.249 214.55 288.966 214.55 288.966H204.748L202.864 263.211L202.095 252.947L199.712 220.694L199.673 220.31H226.775C227.082 221.54 227.428 223.885 227.813 226.73C228.851 234.687 229.927 246.296 229.927 246.296C229.927 246.296 231.349 250.448 233.041 260.058C234.809 269.669 235.501 288.121 235.501 288.121Z" fill="#292265"/>
<path d="M227.851 226.73C223.892 227.614 217.626 230.305 217.626 230.305L211.437 227.844C211.437 227.844 213.974 223.308 213.359 222.04C212.782 220.886 206.17 220.579 199.712 220.694L199.673 220.31H226.775C227.121 221.54 227.467 223.885 227.851 226.73Z" fill="#1D1B4C"/>
<path d="M215.742 250.909L215.434 257.598C213.628 250.294 210.322 240.069 211.091 236.109L215.742 250.909Z" fill="#1D1B4C"/>
<path d="M223.699 257.521C224.276 260.366 223.546 262.903 222.123 263.211C220.701 263.48 219.048 261.404 218.471 258.559C217.895 255.715 218.625 253.177 220.047 252.87C221.47 252.562 223.123 254.638 223.699 257.521Z" fill="#1D1B4C"/>
<path d="M203.364 263.288C203.21 263.288 203.018 263.288 202.864 263.249L202.095 252.985C202.287 252.87 202.518 252.793 202.749 252.793C204.209 252.716 205.555 254.984 205.709 257.906C205.862 260.789 204.825 263.211 203.364 263.288Z" fill="#1D1B4C"/>
<path d="M205.747 289.966L197.367 293.772C196.713 294.079 196.329 294.694 196.329 295.386C196.329 296.386 197.136 297.155 198.097 297.155H213.358C214.512 297.155 215.357 296.078 215.088 295.002L213.935 289.812H206.477C206.208 289.812 205.978 289.889 205.747 289.966Z" fill="#281A47"/>
<path d="M214.55 290.504H204.209C203.902 290.504 203.633 290.235 203.633 289.928V288.428C203.633 288.121 203.902 287.852 204.209 287.852H214.55C214.858 287.852 215.127 288.121 215.127 288.428V289.928C215.127 290.274 214.896 290.504 214.55 290.504Z" fill="#1D1B4C"/>
<path d="M227.044 289.966L218.663 293.772C218.01 294.079 217.625 294.694 217.625 295.386C217.625 296.386 218.433 297.155 219.394 297.155H234.655C235.808 297.155 236.654 296.078 236.385 295.002L235.232 289.812H227.774C227.505 289.812 227.274 289.889 227.044 289.966Z" fill="#281A47"/>
<path d="M236.077 290.504H225.737C225.429 290.504 225.16 290.235 225.16 289.928V288.428C225.16 288.121 225.429 287.852 225.737 287.852H236.077C236.385 287.852 236.654 288.121 236.654 288.428V289.928C236.654 290.274 236.385 290.504 236.077 290.504Z" fill="#1D1B4C"/>
<path d="M215.819 172.104C219.394 172.604 220.048 169.567 220.432 167.837C220.855 166.069 223.008 162.263 222.354 160.495C221.701 158.726 220.201 159.418 220.201 159.418C220.201 159.418 221.701 156.843 220.624 154.344C219.548 151.845 217.433 151.615 213.82 152.307C210.206 152.999 202.48 153.037 200.711 151.845C198.943 150.615 198.136 153.844 199.404 155.536C200.673 157.227 202.979 158.303 202.979 158.303C202.979 158.303 201.096 157.612 200.673 158.457C200.25 159.303 200.596 161.456 204.786 162.417C208.976 163.339 211.59 164.992 211.59 164.992L215.819 172.104Z" fill="#1D1B4C"/>
<path d="M217.433 177.601C217.433 177.601 217.126 179.139 214.051 179.908C210.975 180.676 210.283 179.177 210.283 179.177L210.053 177.601L209.591 174.487L216.934 169.797V169.836C216.857 170.028 216.818 170.336 216.78 170.682C216.588 172.911 217.433 177.601 217.433 177.601Z" fill="#F4BA92"/>
<path d="M216.895 169.836C216.857 170.105 216.818 170.374 216.741 170.72C216.28 172.796 214.781 176.679 210.014 177.64L209.553 174.526L216.895 169.836Z" fill="#EAA781"/>
<path d="M204.671 160.764C203.71 163.147 204.709 164.685 204.671 166.069C204.632 167.414 203.671 175.41 208.938 175.679C214.243 175.948 218.241 168.875 218.241 168.875L218.702 168.337C218.702 168.337 219.009 169.529 220.778 168.721C222.546 167.953 221.969 164.916 220.662 164.723C219.355 164.531 217.51 167.107 217.51 167.107L216.088 161.533C216.126 161.533 209.899 162.494 204.671 160.764Z" fill="#FFC299"/>
<path d="M212.705 170.067C213.406 170.067 213.974 169.654 213.974 169.144C213.974 168.634 213.406 168.221 212.705 168.221C212.004 168.221 211.437 168.634 211.437 169.144C211.437 169.654 212.004 170.067 212.705 170.067Z" fill="#F4BA92"/>
<path d="M206.016 170.067C206.717 170.067 207.285 169.654 207.285 169.144C207.285 168.634 206.717 168.221 206.016 168.221C205.316 168.221 204.748 168.634 204.748 169.144C204.748 169.654 205.316 170.067 206.016 170.067Z" fill="#F4BA92"/>
<path d="M220.932 166.838C221.085 166.03 220.701 165.838 220.278 165.877C219.855 165.915 218.933 167.376 219.663 167.799" stroke="#EAA781" stroke-width="1.06426" stroke-miterlimit="10" stroke-linecap="round" stroke-linejoin="round"/>
<path d="M208.669 166.376V167.837L208.131 168.375C207.9 168.606 208.054 168.99 208.361 168.99H209.245" stroke="#EAA781" stroke-width="1.06426" stroke-miterlimit="10" stroke-linecap="round" stroke-linejoin="round"/>
<path d="M208.784 171.297C208.784 171.297 210.475 171.989 211.552 170.72" stroke="#EAA781" stroke-width="1.06426" stroke-miterlimit="10" stroke-linecap="round" stroke-linejoin="round"/>
<path d="M212.013 167.337C212.332 167.337 212.59 167.079 212.59 166.76C212.59 166.442 212.332 166.184 212.013 166.184C211.695 166.184 211.437 166.442 211.437 166.76C211.437 167.079 211.695 167.337 212.013 167.337Z" fill="#1D1B4C"/>
<path d="M206.862 166.76C206.862 167.068 206.593 167.337 206.285 167.337C205.978 167.337 205.709 167.068 205.709 166.76C205.709 166.453 205.978 166.184 206.285 166.184C206.593 166.184 206.862 166.453 206.862 166.76Z" fill="#1D1B4C"/>
<path d="M210.668 164.608C210.668 164.608 211.975 163.993 213.397 164.685" stroke="#1D1B4C" stroke-width="1.20843" stroke-miterlimit="10" stroke-linecap="round" stroke-linejoin="round"/>
<path d="M207.631 164.608C207.631 164.608 206.324 163.993 204.902 164.685" stroke="#1D1B4C" stroke-width="1.20843" stroke-miterlimit="10" stroke-linecap="round" stroke-linejoin="round"/>
<path d="M214.473 230.766C221.354 228.152 228.389 237.378 224.084 239.415C219.778 241.452 221.201 230.881 214.473 231.189C207.746 231.496 203.748 237.762 202.057 247.219C200.327 256.675 188.41 268.438 177.762 268.592C167.113 268.746 157.734 275.704 157.734 275.704" stroke="#281A47" stroke-width="2.41686" stroke-miterlimit="10"/>
<path d="M213.935 226.384C213.935 226.384 210.591 228.19 210.553 228.652C210.514 229.075 209.63 232.227 210.553 232.111C211.475 231.996 214.512 230.804 214.512 230.804L215.127 227.96L213.935 226.384Z" fill="#EAA781"/>
<path d="M215.319 224.077C213.974 225.499 211.283 230.036 210.745 231.15C210.207 232.265 209.015 234.303 209.976 235.071C210.899 235.802 211.783 235.071 211.783 235.071C211.783 235.071 212.167 235.917 214.089 235.725C216.011 235.533 216.78 234.456 216.78 234.456C216.78 234.456 217.933 234.303 218.164 233.111C218.395 231.919 218.933 229.613 218.856 228.844C218.779 228.075 218.856 225.961 218.856 225.961L215.319 224.077Z" fill="#FFC299"/>
<path d="M233.002 195.707C232.964 197.937 232.887 200.474 232.656 202.857C232.426 205.433 232.003 207.816 231.349 209.239C231.157 209.661 230.811 210.43 230.312 211.391C227.813 216.619 222.123 227.96 220.47 227.844C218.51 227.69 214.281 224.961 214.435 224.077C214.589 223.231 223.969 206.548 224.199 203.203C224.43 199.859 222.431 180.907 226.736 179.677C233.002 182.791 233.079 191.094 233.002 195.707Z" fill="#77A9FF"/>
<path d="M232.656 202.857C232.426 205.433 232.003 207.816 231.349 209.238C231.157 209.661 230.811 210.43 230.311 211.391C228.812 210.891 228.005 208.739 228.505 206.432C229.043 204.049 230.85 202.434 232.503 202.819C232.579 202.819 232.618 202.857 232.656 202.857Z" fill="#2970D6"/>
<path d="M169.651 279.625C170.919 278.818 174.264 274.628 172.072 271.398C172.072 271.398 169.574 275.127 166.998 275.627L169.651 279.625Z" fill="#E09B36"/>
<path d="M134.323 254.83C132.478 254.753 127.519 247.065 126.02 246.95C124.52 246.834 131.286 243.413 139.743 249.679L134.323 254.83Z" fill="#FABA50"/>
<path d="M134.515 254.484C133.054 254.407 128.98 247.065 127.788 246.988C126.596 246.911 132.093 245.258 138.897 250.332L134.515 254.484Z" fill="#CE413E"/>
<path d="M134.63 254.292C133.362 254.138 130.287 247.488 129.249 247.334C128.211 247.18 133.093 246.104 138.705 250.986L134.63 254.292Z" fill="#E25E54"/>
<path d="M156.081 254.869C158.08 254.676 163.539 246.757 165.192 246.565C166.845 246.373 159.425 243.298 150.161 250.025L156.081 254.869Z" fill="#FABA50"/>
<path d="M163.192 280.625C163.269 281.201 164.653 288.274 163.961 289.851C163.961 289.851 158.541 298.346 158.003 300.883L155.12 300.806L154.351 290.85L163.192 280.625Z" fill="#E09B36"/>
<path d="M170.573 300.883C171.611 295.309 174.686 287.505 171.919 280.471C169.189 273.436 164.653 272.59 157.772 273.513C150.891 274.397 134.092 272.705 134.092 272.705C134.092 272.705 133.285 287.89 133.785 290.965C134.284 294.041 138.321 300.922 138.321 300.922H141.05L142.05 297.308C142.05 297.308 160.194 297.5 165.537 294.425L168.075 300.883H170.573Z" fill="#FABA50"/>
<path d="M157.272 295.655C157.272 295.655 159.348 293.003 159.81 290.466C160.271 287.967 158.733 283.239 158.733 283.239L154.543 295.963L157.272 295.655Z" fill="#E09B36"/>
<path d="M134.131 272.705C134.131 272.705 150.93 274.397 157.811 273.513C160.002 273.244 161.962 273.128 163.654 273.321C161.962 276.78 155.581 292.157 156.657 293.31C157.657 294.348 163.423 295.886 166.268 291.042C166.844 294.194 168.69 299.922 169.497 300.883H168.036L164.653 295.655C159.31 298.73 142.165 297.462 142.165 297.462L141.05 300.845H138.321C138.321 300.845 134.284 293.964 133.785 290.888C133.323 287.89 134.131 272.705 134.131 272.705Z" fill="#E09B36"/>
<path d="M158.887 280.432C158.964 281.009 160.425 288.044 159.694 289.658C159.694 289.658 153.967 298.307 153.39 300.883H150.315L149.507 290.927L158.887 280.432Z" fill="#FABA50"/>
<path d="M158.887 280.432C158.926 280.586 159.079 281.509 159.272 282.508C156.504 285.506 150.392 296.385 153.736 299.307C153.813 299.384 153.89 299.345 154.005 299.384C153.736 299.999 153.505 300.537 153.428 300.922H150.353L149.546 290.965L158.887 280.432Z" fill="#E09B36"/>
<path d="M155.312 253.946C156.85 253.792 162.154 247.949 163.577 246.911C164.576 246.142 157.003 246.988 151.622 250.256L155.312 253.946Z" fill="#CE413E"/>
<path d="M154.735 253.677C156.042 253.562 160.579 248.526 161.809 247.642C162.693 246.988 156.196 247.718 151.545 250.486L154.735 253.677Z" fill="#E25E54"/>
<path d="M144.318 296.039C150.93 292.58 163.308 277.703 164.269 268.4C164.269 268.4 156.427 251.524 152.16 250.063C147.893 248.602 138.167 248.756 136.322 250.563C134.477 252.331 127.826 265.44 127.288 268.438C131.44 281.816 135.015 289.735 144.318 296.039Z" fill="#E09B36"/>
<path d="M143.933 294.079C150.046 290.735 161.809 277.049 162.693 268.131C162.693 268.131 155.12 251.409 151.16 250.025C147.201 248.641 138.244 248.795 136.553 250.486C134.823 252.178 128.71 264.71 128.211 267.593C132.016 280.471 135.322 288.044 143.933 294.079Z" fill="#FABA50"/>
<path d="M139.82 263.172C144.087 263.749 146.163 258.943 152.506 259.328C156.85 259.558 163.615 267.016 161.463 276.588C157.196 284.738 149.2 293.771 144.318 296.309C135.015 290.004 131.248 281.854 127.096 268.4C127.634 264.671 130.517 261.596 131.209 261.442C132.708 261.134 135.515 262.595 139.82 263.172Z" fill="#FFE8CA"/>
<path d="M144.433 293.81C149.315 291.235 157.196 281.201 161.463 273.052C161.616 272.398 161.693 271.783 161.77 271.168C161.962 272.859 161.886 274.666 161.463 276.588C157.196 284.738 149.315 294.694 144.433 297.27C135.13 290.965 131.286 281.893 127.096 268.439C127.211 267.747 127.365 267.132 127.596 266.478C131.555 278.972 135.476 287.775 144.433 293.81Z" fill="#EFCEA8"/>
<path d="M144.625 261.442C143.972 260.635 137.898 257.944 132.555 261.519C131.824 262.019 137.475 265.709 138.129 265.632C138.782 265.556 145.471 262.48 144.625 261.442Z" fill="#68413C"/>
<path d="M170.535 300.883H166.806C166.806 300.883 167.767 299.384 168.92 299.5C170.074 299.653 170.535 300.883 170.535 300.883Z" fill="#FFC37B"/>
<path d="M157.465 300.883H153.736C153.736 300.883 153.928 299.538 155.081 299.653C156.235 299.807 157.465 300.883 157.465 300.883Z" fill="#E09B36"/>
<path d="M152.775 300.883H149.046C149.046 300.883 149.238 299.538 150.392 299.653C151.545 299.807 152.775 300.883 152.775 300.883Z" fill="#FABA50"/>
<path d="M153.236 300.883H151.007C151.007 300.883 151.122 299.538 151.814 299.653C152.506 299.807 153.236 300.883 153.236 300.883Z" fill="#FFC37B"/>
<path d="M140.128 300.883H136.399C136.399 300.883 136.591 299.538 137.744 299.653C138.859 299.807 140.128 300.883 140.128 300.883Z" fill="#E09B36"/>
<path d="M138.013 265.594C138.052 265.594 138.129 265.632 138.129 265.632C138.129 265.632 138.167 265.632 138.206 265.632C139.051 265.44 144.51 262.903 144.702 261.75C143.164 262.173 141.127 262.442 138.897 262.442C136.399 262.442 134.131 262.096 132.516 261.558C132.093 262.096 136.937 265.325 138.013 265.594Z" fill="#4F2A28"/>
<path d="M139.128 264.902C140.051 264.671 143.51 262.788 142.319 262.711C140.666 262.595 139.282 263.134 138.782 263.633C138.244 264.133 138.09 265.133 139.128 264.902Z" fill="#351817"/>
<path d="M136.13 264.133C135.63 263.979 133.054 262.249 134.092 262.403C135.245 262.557 136.053 263.056 136.322 263.402C136.591 263.748 136.629 264.325 136.13 264.133Z" fill="#351817"/>
<path d="M133.785 261.365C133.785 261.019 134.592 260.596 135.63 260.404C136.629 260.212 137.168 260.481 137.168 260.827C137.168 261.173 136.783 261.827 135.476 261.865C134.4 261.865 133.785 261.711 133.785 261.365Z" fill="#84534F"/>
<path d="M137.129 260.173C137.129 260.02 137.552 259.904 138.052 259.904C138.551 259.904 138.974 260.02 138.974 260.173C138.974 260.327 138.551 260.443 138.052 260.443C137.552 260.443 137.129 260.327 137.129 260.173Z" fill="#84534F"/>
<path d="M166.575 287.698C166.575 287.698 167.613 290.119 165.807 294.079L162.616 294.271C162.616 294.271 165.614 292.926 166.575 287.698Z" fill="#E09B36"/>
<path d="M144.356 258.828L143.126 258.559C143.126 258.559 143.433 256.829 143.972 257.137C144.548 257.406 144.356 258.828 144.356 258.828Z" fill="#68413C"/>
<path d="M137.091 258.098L135.899 258.136C135.899 258.136 135.86 256.176 136.475 256.522C137.052 256.829 137.091 258.098 137.091 258.098Z" fill="#68413C"/>
<path opacity="0.5" d="M144.856 256.176C145.432 256.944 146.663 257.137 146.278 256.214C145.894 255.292 144.01 254.83 143.626 255.176C143.241 255.561 144.241 255.368 144.856 256.176Z" fill="#FFE8CA"/>
<path opacity="0.5" d="M135.784 255.945C135.322 256.445 134.438 256.368 134.592 255.829C134.784 255.176 136.783 254.638 137.437 255.022C138.205 255.445 136.476 255.214 135.784 255.945Z" fill="#FFE8CA"/>
<path d="M136.975 266.747C137.014 266.901 137.052 267.055 137.091 267.208C137.667 269.207 138.782 271.821 140.704 271.36C142.28 271.014 143.395 268.861 143.703 267.093C143.741 266.978 143.741 266.824 143.741 266.709C143.51 266.824 143.28 266.901 143.049 266.978C142.934 267.016 142.78 267.055 142.665 267.093C142.626 267.093 142.588 267.093 142.588 267.132C142.549 267.132 142.511 267.17 142.511 267.17C141.242 267.516 140.128 267.17 139.282 266.593C139.09 266.478 138.936 266.324 138.782 266.209C138.744 266.171 138.667 266.132 138.628 266.094C138.551 266.017 138.475 265.94 138.436 265.863C138.398 265.825 138.359 265.786 138.321 265.748C138.282 265.709 138.244 265.671 138.244 265.632C138.205 265.632 138.205 265.632 138.167 265.632C138.129 265.632 138.09 265.632 138.052 265.594C137.898 265.863 137.667 266.171 137.398 266.401C137.321 266.478 137.206 266.593 137.091 266.67C137.014 266.709 136.975 266.747 136.975 266.747Z" fill="#EFCEA8"/>
<path d="M137.052 266.709C137.129 266.862 137.206 267.055 137.283 267.208C138.09 269.092 139.282 271.168 140.435 270.784C141.665 270.399 142.511 268.938 142.934 267.478C142.972 267.324 143.011 267.132 143.049 266.978C142.934 267.016 142.78 267.055 142.665 267.093C142.626 267.093 142.588 267.093 142.588 267.132C142.549 267.132 142.511 267.17 142.511 267.17C141.242 267.516 140.128 267.17 139.282 266.593C139.09 266.478 138.936 266.324 138.782 266.209C138.744 266.171 138.667 266.132 138.628 266.094C138.551 266.017 138.475 265.94 138.436 265.863C138.398 265.825 138.359 265.786 138.321 265.748C138.282 265.709 138.244 265.671 138.244 265.632C138.205 265.632 138.205 265.632 138.167 265.632C138.129 265.632 138.09 265.632 138.052 265.594C137.898 265.863 137.667 266.171 137.398 266.401C137.244 266.517 137.129 266.632 137.052 266.709Z" fill="#68413C"/>
<path d="M138.744 268.708C138.782 268.861 138.859 269.015 138.936 269.207C138.936 269.246 138.974 269.284 138.974 269.323C139.013 269.361 139.013 269.4 139.051 269.438C139.09 269.515 139.128 269.592 139.166 269.669C139.205 269.746 139.243 269.784 139.282 269.861L139.32 269.899C139.359 269.938 139.397 269.976 139.397 270.015C139.474 270.13 139.589 270.207 139.705 270.284C139.743 270.284 139.743 270.322 139.782 270.322C139.82 270.322 139.82 270.361 139.858 270.361C139.897 270.361 139.897 270.399 139.935 270.399H139.974C140.012 270.399 140.051 270.399 140.051 270.438C140.089 270.438 140.127 270.438 140.166 270.438C140.243 270.438 140.358 270.438 140.435 270.399C140.512 270.361 140.589 270.322 140.704 270.284C140.743 270.284 140.781 270.245 140.819 270.207C140.935 270.13 141.05 270.053 141.165 269.976C141.204 269.938 141.242 269.899 141.281 269.899C141.358 269.823 141.473 269.746 141.55 269.63C141.588 269.592 141.627 269.553 141.665 269.515C141.704 269.438 141.78 269.4 141.819 269.323C141.934 269.169 142.05 268.977 142.126 268.823C142.28 268.554 142.396 268.285 142.472 268.016C142.588 267.708 142.588 267.401 142.511 267.093C141.242 267.439 140.127 267.093 139.282 266.517C139.166 266.632 139.051 266.786 138.936 266.939C138.628 267.516 138.551 268.131 138.744 268.708Z" fill="#CE413E"/>
<path d="M140.858 268.708C141.319 268.708 141.742 268.785 142.127 268.9C141.742 269.63 141.166 270.246 140.474 270.438C139.743 270.668 139.282 270.015 138.936 269.169C139.397 268.9 140.089 268.708 140.858 268.708Z" fill="#E25E54"/>
<path d="M136.207 267.132C136.476 267.208 136.745 267.247 137.052 267.208C137.091 267.208 137.168 267.208 137.206 267.208C137.321 267.208 137.475 267.17 137.629 267.132L137.283 266.44C137.206 266.517 137.091 266.632 136.975 266.709C136.937 266.747 136.937 266.747 136.898 266.747C136.745 266.939 136.476 267.055 136.207 267.132Z" fill="#68413C"/>
<path d="M142.588 267.17L142.665 267.593C142.742 267.554 142.818 267.554 142.895 267.516C143.203 267.401 143.433 267.285 143.664 267.132C144.049 266.863 144.318 266.593 144.51 266.363C144.241 266.478 144.01 266.632 143.741 266.747C143.51 266.863 143.28 266.939 143.049 267.016C142.934 267.055 142.78 267.093 142.665 267.132C142.626 267.132 142.626 267.132 142.588 267.17Z" fill="#68413C"/>
<path d="M375 667L-0.999908 667L-0.999976 393.469C-0.999974 371.704 13.0785 352.44 33.8146 345.83L141.444 311.522C171.08 302.075 202.92 302.075 232.556 311.522L340.185 345.83C360.922 352.44 375 371.704 375 393.469L375 667Z" fill="#FAFAFC"/>
</g>
<defs>
<clipPath id="clip0_0_27">
<rect width="375" height="667" fill="white"/>
</clipPath>
</defs>
</svg>
