<svg width="414" height="212" viewBox="0 0 414 212" fill="none" xmlns="http://www.w3.org/2000/svg">
<g clip-path="url(#clip0_1_6)">
<rect width="414" height="212" fill="white"/>
<path d="M0 0H414V91.8442C414 109.985 400.849 125.45 382.944 128.364L238.486 151.875C217.633 155.269 196.367 155.269 175.514 151.875L31.0562 128.364C13.1515 125.45 0 109.985 0 91.8442V0Z" fill="url(#paint0_linear_1_6)"/>
<path d="M159.037 204.957V203.712H160.262C160.77 203.712 161.185 203.577 161.506 203.306C161.828 203.035 161.989 202.684 161.989 202.252C161.989 201.825 161.836 201.486 161.532 201.237C161.227 200.987 160.808 200.862 160.275 200.862C159.742 200.862 159.31 200.989 158.98 201.243C158.654 201.497 158.47 201.848 158.428 202.297H157.082C157.129 201.472 157.442 200.82 158.021 200.342C158.601 199.859 159.367 199.618 160.319 199.618C161.221 199.618 161.957 199.847 162.528 200.304C163.104 200.761 163.392 201.353 163.392 202.081C163.392 202.589 163.237 203.037 162.928 203.427C162.624 203.812 162.224 204.062 161.729 204.176V204.284C162.334 204.347 162.825 204.576 163.201 204.969C163.578 205.363 163.766 205.873 163.766 206.499C163.766 207.011 163.616 207.477 163.315 207.896C163.015 208.31 162.604 208.636 162.084 208.873C161.563 209.106 160.984 209.222 160.345 209.222C159.35 209.222 158.538 208.975 157.907 208.479C157.281 207.984 156.947 207.328 156.904 206.512H158.269C158.311 206.952 158.519 207.303 158.891 207.565C159.268 207.824 159.752 207.953 160.345 207.953C160.933 207.953 161.407 207.811 161.767 207.527C162.126 207.244 162.306 206.876 162.306 206.423C162.306 205.966 162.131 205.608 161.779 205.35C161.428 205.088 160.935 204.957 160.3 204.957H159.037ZM167.778 207.965C168.29 207.965 168.715 207.821 169.054 207.534C169.396 207.246 169.568 206.886 169.568 206.455V205.877L167.879 205.985C167.405 206.014 167.056 206.112 166.832 206.277C166.608 206.442 166.496 206.677 166.496 206.981C166.496 207.286 166.614 207.527 166.851 207.705C167.088 207.879 167.397 207.965 167.778 207.965ZM167.429 209.114C166.752 209.114 166.197 208.926 165.766 208.549C165.338 208.168 165.125 207.667 165.125 207.045C165.125 206.427 165.347 205.943 165.791 205.591C166.235 205.236 166.87 205.033 167.695 204.982L169.568 204.874V204.277C169.568 203.909 169.447 203.628 169.206 203.433C168.965 203.234 168.614 203.135 168.152 203.135C167.771 203.135 167.454 203.202 167.2 203.338C166.951 203.469 166.788 203.657 166.711 203.903H165.391C165.459 203.31 165.749 202.839 166.261 202.487C166.777 202.132 167.429 201.954 168.216 201.954C169.079 201.954 169.746 202.159 170.215 202.57C170.689 202.976 170.926 203.545 170.926 204.277V209H169.612V208.029H169.504C169.297 208.376 169.011 208.645 168.647 208.835C168.288 209.021 167.882 209.114 167.429 209.114ZM177.541 203.236H174.354V209H172.989V202.087H177.541V203.236ZM182.746 201.973C183.626 201.973 184.324 202.295 184.84 202.938C185.357 203.577 185.615 204.444 185.615 205.541C185.615 206.637 185.357 207.506 184.84 208.149C184.328 208.793 183.634 209.114 182.758 209.114C182.267 209.114 181.836 209.013 181.463 208.81C181.091 208.602 180.814 208.317 180.632 207.953H180.524V211.298H179.159V202.087H180.473V203.23H180.575C180.782 202.836 181.078 202.53 181.463 202.31C181.848 202.085 182.276 201.973 182.746 201.973ZM182.358 207.889C182.938 207.889 183.391 207.682 183.717 207.267C184.047 206.848 184.212 206.273 184.212 205.541C184.212 204.808 184.047 204.235 183.717 203.82C183.391 203.406 182.94 203.198 182.365 203.198C181.789 203.198 181.334 203.41 181 203.833C180.666 204.252 180.499 204.823 180.499 205.547C180.499 206.266 180.666 206.838 181 207.261C181.334 207.68 181.787 207.889 182.358 207.889ZM187.811 211.507C187.574 211.507 187.386 211.497 187.246 211.476V210.301C187.343 210.318 187.492 210.327 187.69 210.327C188.016 210.327 188.277 210.253 188.471 210.104C188.666 209.956 188.822 209.709 188.941 209.362L189.042 209.025L186.542 202.087H188.027L189.76 207.578H189.868L191.594 202.087H193.042L190.464 209.286C190.168 210.124 189.827 210.703 189.442 211.025C189.062 211.347 188.518 211.507 187.811 211.507ZM196.844 209.127C196.061 209.127 195.407 208.947 194.882 208.587C194.362 208.228 194.07 207.711 194.006 207.039H195.365C195.437 207.339 195.602 207.57 195.86 207.73C196.118 207.887 196.446 207.965 196.844 207.965C197.297 207.965 197.648 207.874 197.897 207.692C198.151 207.506 198.278 207.257 198.278 206.943C198.278 206.287 197.802 205.959 196.85 205.959H195.834V204.899H196.831C197.635 204.899 198.037 204.601 198.037 204.004C198.037 203.738 197.936 203.522 197.732 203.357C197.529 203.192 197.229 203.109 196.831 203.109C196.446 203.109 196.129 203.188 195.879 203.344C195.633 203.497 195.49 203.708 195.447 203.979H194.127C194.199 203.357 194.474 202.864 194.952 202.5C195.43 202.136 196.055 201.954 196.825 201.954C197.637 201.954 198.266 202.125 198.71 202.468C199.154 202.807 199.376 203.272 199.376 203.865C199.376 204.212 199.275 204.514 199.072 204.772C198.873 205.031 198.611 205.2 198.285 205.28V205.388C198.729 205.49 199.065 205.678 199.294 205.953C199.527 206.224 199.643 206.554 199.643 206.943C199.643 207.604 199.389 208.132 198.881 208.53C198.374 208.928 197.694 209.127 196.844 209.127ZM202.766 209H201.414V202.087H202.766V206.842H202.874L206.029 202.087H207.381V209H206.029V204.22H205.921L202.766 209ZM214.643 202.087V203.236H212.465V209H211.101V203.236H208.923V202.087H214.643ZM218.756 205.35H217.543V207.851H218.756C219.171 207.851 219.501 207.737 219.746 207.508C219.992 207.28 220.114 206.977 220.114 206.601C220.114 206.224 219.989 205.921 219.74 205.693C219.494 205.464 219.166 205.35 218.756 205.35ZM216.179 209V202.087H217.543V204.208H218.857C219.657 204.208 220.294 204.423 220.768 204.855C221.242 205.287 221.479 205.868 221.479 206.601C221.479 207.333 221.242 207.917 220.768 208.353C220.294 208.784 219.657 209 218.857 209H216.179ZM229.972 207.927V203.16C229.291 203.177 228.749 203.397 228.347 203.82C227.945 204.243 227.744 204.817 227.744 205.541C227.744 206.268 227.943 206.844 228.341 207.267C228.743 207.686 229.287 207.906 229.972 207.927ZM232.93 207.267C233.332 206.84 233.533 206.264 233.533 205.541C233.533 204.817 233.332 204.246 232.93 203.827C232.528 203.403 231.984 203.181 231.299 203.16V207.927C231.984 207.91 232.528 207.69 232.93 207.267ZM229.972 209.089C228.872 209.068 227.994 208.74 227.338 208.105C226.682 207.466 226.354 206.611 226.354 205.541C226.354 204.474 226.682 203.624 227.338 202.989C227.998 202.35 228.876 202.02 229.972 201.999V199.802H231.305V201.999C232.405 202.02 233.281 202.35 233.933 202.989C234.589 203.624 234.917 204.476 234.917 205.547C234.917 206.613 234.589 207.466 233.933 208.105C233.277 208.74 232.401 209.068 231.305 209.089V211.298H229.972V209.089ZM239.608 207.921C240.196 207.921 240.651 207.714 240.973 207.299C241.299 206.88 241.461 206.294 241.461 205.541C241.461 204.792 241.299 204.21 240.973 203.795C240.651 203.376 240.196 203.167 239.608 203.167C239.015 203.167 238.558 203.374 238.237 203.789C237.915 204.203 237.754 204.787 237.754 205.541C237.754 206.298 237.915 206.884 238.237 207.299C238.558 207.714 239.015 207.921 239.608 207.921ZM239.608 209.133C238.592 209.133 237.795 208.814 237.215 208.175C236.635 207.536 236.345 206.658 236.345 205.541C236.345 204.428 236.635 203.552 237.215 202.913C237.799 202.274 238.597 201.954 239.608 201.954C240.615 201.954 241.409 202.274 241.988 202.913C242.572 203.552 242.864 204.428 242.864 205.541C242.864 206.658 242.574 207.536 241.995 208.175C241.415 208.814 240.619 209.133 239.608 209.133ZM249.555 202.087V203.236H247.377V209H246.013V203.236H243.835V202.087H249.555ZM253.776 207.921C254.364 207.921 254.819 207.714 255.141 207.299C255.466 206.88 255.629 206.294 255.629 205.541C255.629 204.792 255.466 204.21 255.141 203.795C254.819 203.376 254.364 203.167 253.776 203.167C253.183 203.167 252.726 203.374 252.405 203.789C252.083 204.203 251.922 204.787 251.922 205.541C251.922 206.298 252.083 206.884 252.405 207.299C252.726 207.714 253.183 207.921 253.776 207.921ZM253.776 209.133C252.76 209.133 251.963 208.814 251.383 208.175C250.803 207.536 250.513 206.658 250.513 205.541C250.513 204.428 250.803 203.552 251.383 202.913C251.967 202.274 252.764 201.954 253.776 201.954C254.783 201.954 255.576 202.274 256.156 202.913C256.74 203.552 257.032 204.428 257.032 205.541C257.032 206.658 256.742 207.536 256.163 208.175C255.583 208.814 254.787 209.133 253.776 209.133Z" fill="#3165C8"/>
<g clip-path="url(#clip1_1_6)">
<rect x="137" y="46" width="140" height="140" rx="25" fill="white"/>
<g clip-path="url(#clip2_1_6)">
<path d="M169.046 102.685V114.25C169.046 118.604 172.559 122.099 176.875 122.099H237.319C241.662 122.099 245.148 118.577 245.148 114.25V102.685V93.0055C245.148 89.8438 246.78 86.9039 249.436 85.2398C249.989 84.8793 250.155 84.1582 249.823 83.6035C247.886 80.4141 240.777 70.7625 225.645 69.5422C225.203 69.5145 224.981 68.9875 225.258 68.627C225.839 67.9336 226.862 66.9906 228.494 66.6855C228.882 66.6023 228.992 66.0754 228.66 65.8535C226.337 64.3559 219.67 61 206.751 61C190.098 61 169.046 70.402 169.046 102.685Z" fill="#1D85FF"/>
<path d="M254 189.022V203H160V189.022C160 175.987 170.54 165.42 183.541 165.42H183.652C187.636 165.42 191.149 163.423 193.251 160.372C197.069 163.284 201.827 165.032 207.028 165.032C212.228 165.032 217.014 163.284 220.859 160.317C222.962 163.395 226.503 165.42 230.486 165.42C243.46 165.42 254 175.987 254 189.022Z" fill="#1D85FF"/>
<path d="M237.236 103.572V122.848C237.236 130.502 234.387 137.519 229.712 142.844C226.724 146.255 223.017 148.973 218.784 150.748C215.161 152.302 211.177 153.134 207 153.134C202.85 153.134 198.895 152.302 195.298 150.776C191.038 148.973 187.276 146.255 184.288 142.816C179.613 137.464 176.764 130.475 176.764 122.82V103.517C176.764 95.0301 183.624 88.1797 192.062 88.1797H221.938C230.375 88.2352 237.236 95.0855 237.236 103.572Z" fill="#E9F6FF"/>
<path d="M220.832 160.317C216.986 163.257 212.201 165.032 207 165.032C201.827 165.032 197.041 163.284 193.224 160.372C194.524 158.486 195.298 156.184 195.298 153.716V150.804C198.895 152.329 202.85 153.161 207 153.161C211.177 153.161 215.161 152.302 218.784 150.776V153.716C218.784 156.184 219.559 158.459 220.832 160.317Z" fill="#E9F6FF"/>
</g>
</g>
<rect x="138" y="47" width="138" height="138" rx="24" stroke="#EDEDF0" stroke-opacity="0.2" stroke-width="2"/>
</g>
<defs>
<linearGradient id="paint0_linear_1_6" x1="207" y1="0" x2="207" y2="157" gradientUnits="userSpaceOnUse">
<stop stop-color="#1D85FF"/>
<stop offset="1" stop-color="#4787FF"/>
</linearGradient>
<clipPath id="clip0_1_6">
<rect width="414" height="212" fill="white"/>
</clipPath>
<clipPath id="clip1_1_6">
<rect x="137" y="46" width="140" height="140" rx="25" fill="white"/>
</clipPath>
<clipPath id="clip2_1_6">
<rect width="94" height="142" fill="white" transform="translate(160 61)"/>
</clipPath>
</defs>
</svg>
